<svg width="32" height="32" viewBox="0 0 32 32" fill="none" xmlns="http://www.w3.org/2000/svg">
<path d="M32 16C32 24.8366 24.8366 32 16 32C7.16344 32 0 24.8366 0 16C0 7.16344 7.16344 0 16 0C24.8366 0 32 7.16344 32 16Z" fill="url(#paint0_radial_502_1925)"/>
<g filter="url(#filter0_d_502_1925)">
<path d="M16 7L17.8693 12.6838M16 7L14.1307 12.6838M16 7V16M17.8693 12.6838L20.5 11.5M17.8693 12.6838L16 16M14.1307 12.6838L11.5 11.5M14.1307 12.6838L16 16M11.5 11.5L12.6838 14.1307M11.5 11.5L16 16M12.6838 14.1307L7 16M12.6838 14.1307L16 16M7 16L12.6838 17.8693M7 16H16M12.6838 17.8693L11.5 20.5M12.6838 17.8693L16 16M11.5 20.5L14.1307 19.3162M11.5 20.5L16 16M14.1307 19.3162L16 25M14.1307 19.3162L16 16M16 25L17.8693 19.3162M16 25V16M17.8693 19.3162L20.5 20.5M17.8693 19.3162L16 16M20.5 20.5L19.3162 17.8693M20.5 20.5L16 16M19.3162 17.8693L25 16M19.3162 17.8693L16 16M25 16L19.3162 14.1307M25 16H16M19.3162 14.1307L20.5 11.5M19.3162 14.1307L16 16M20.5 11.5L16 16" stroke="#FAB837" stroke-width="0.5" shape-rendering="crispEdges"/>
</g>
<defs>
<filter id="filter0_d_502_1925" x="2.19971" y="2.19971" width="27.6006" height="27.6006" filterUnits="userSpaceOnUse" color-interpolation-filters="sRGB">
<feFlood flood-opacity="0" result="BackgroundImageFix"/>
<feColorMatrix in="SourceAlpha" type="matrix" values="0 0 0 0 0 0 0 0 0 0 0 0 0 0 0 0 0 0 127 0" result="hardAlpha"/>
<feOffset/>
<feGaussianBlur stdDeviation="2"/>
<feComposite in2="hardAlpha" operator="out"/>
<feColorMatrix type="matrix" values="0 0 0 0 1 0 0 0 0 1 0 0 0 0 1 0 0 0 0.25 0"/>
<feBlend mode="normal" in2="BackgroundImageFix" result="effect1_dropShadow_502_1925"/>
<feBlend mode="normal" in="SourceGraphic" in2="effect1_dropShadow_502_1925" result="shape"/>
</filter>
<radialGradient id="paint0_radial_502_1925" cx="0" cy="0" r="1" gradientUnits="userSpaceOnUse" gradientTransform="translate(16 16) rotate(90) scale(16)">
<stop offset="0.01" stop-color="white"/>
<stop offset="0.21" stop-color="#0080FF"/>
<stop offset="0.495322" stop-color="#0080FF"/>
<stop offset="1" stop-color="#0080FF" stop-opacity="0"/>
</radialGradient>
</defs>
</svg>
