<svg width="20" height="20" viewBox="0 0 20 20" fill="none" xmlns="http://www.w3.org/2000/svg">
<path d="M10 5.38559C9.08716 5.38559 8.19483 5.65628 7.43583 6.16342C6.67683 6.67057 6.08527 7.39139 5.73594 8.23475C5.38661 9.0781 5.29521 10.0061 5.4733 10.9014C5.65138 11.7967 6.09096 12.6191 6.73643 13.2645C7.3819 13.91 8.20429 14.3496 9.09958 14.5277C9.99488 14.7058 10.9229 14.6144 11.7662 14.265C12.6096 13.9157 13.3304 13.3241 13.8376 12.5651C14.3447 11.8062 14.6154 10.9138 14.6154 10.001C14.6141 8.77729 14.1274 7.60409 13.2622 6.73881C12.3969 5.87354 11.2237 5.38686 10 5.38559ZM10 13.0779C9.39144 13.0779 8.79655 12.8974 8.29055 12.5593C7.78456 12.2212 7.39018 11.7407 7.15729 11.1785C6.92441 10.6162 6.86348 9.99756 6.9822 9.4007C7.10092 8.80383 7.39397 8.25558 7.82429 7.82526C8.2546 7.39495 8.80286 7.1019 9.39972 6.98318C9.99659 6.86445 10.6153 6.92538 11.1775 7.15827C11.7397 7.39116 12.2203 7.78553 12.5584 8.29153C12.8965 8.79753 13.0769 9.39242 13.0769 10.001C13.0769 10.817 12.7527 11.5997 12.1757 12.1767C11.5987 12.7537 10.8161 13.0779 10 13.0779ZM14.6154 0.000976562H5.38462C3.957 0.0025037 2.58828 0.5703 1.5788 1.57978C0.569324 2.58926 0.00152714 3.95797 0 5.38559V14.6164C0.00152714 16.044 0.569324 17.4127 1.5788 18.4222C2.58828 19.4317 3.957 19.9995 5.38462 20.001H14.6154C16.043 19.9995 17.4117 19.4317 18.4212 18.4222C19.4307 17.4127 19.9985 16.044 20 14.6164V5.38559C19.9985 3.95797 19.4307 2.58926 18.4212 1.57978C17.4117 0.5703 16.043 0.0025037 14.6154 0.000976562ZM18.4615 14.6164C18.4615 15.6364 18.0563 16.6147 17.335 17.336C16.6137 18.0573 15.6354 18.4625 14.6154 18.4625H5.38462C4.36455 18.4625 3.38627 18.0573 2.66497 17.336C1.94368 16.6147 1.53846 15.6364 1.53846 14.6164V5.38559C1.53846 4.36553 1.94368 3.38724 2.66497 2.66595C3.38627 1.94466 4.36455 1.53944 5.38462 1.53944H14.6154C15.6354 1.53944 16.6137 1.94466 17.335 2.66595C18.0563 3.38724 18.4615 4.36553 18.4615 5.38559V14.6164ZM16.1538 5.00098C16.1538 5.22919 16.0862 5.45227 15.9594 5.64202C15.8326 5.83177 15.6524 5.97966 15.4416 6.06699C15.2307 6.15432 14.9987 6.17717 14.7749 6.13265C14.5511 6.08813 14.3455 5.97824 14.1841 5.81687C14.0227 5.6555 13.9128 5.44991 13.8683 5.22608C13.8238 5.00226 13.8467 4.77026 13.934 4.55942C14.0213 4.34858 14.1692 4.16837 14.359 4.04159C14.5487 3.9148 14.7718 3.84713 15 3.84713C15.306 3.84713 15.5995 3.9687 15.8159 4.18508C16.0323 4.40147 16.1538 4.69496 16.1538 5.00098Z" fill="#FAB837"/>
</svg>
