<svg width="113" height="25" viewBox="0 0 113 25" fill="none" xmlns="http://www.w3.org/2000/svg">
<path d="M0.552 18.045C2.496 17.997 3.024 18.021 3.024 16.917V3.26098C3.024 1.98898 2.064 2.15698 0.552 2.10898V1.65298H8.184V2.10898C6.432 2.15698 5.472 1.98898 5.496 3.26098V17.805H11.04C13.104 17.805 14.28 16.269 14.88 12.957H15.432L14.736 18.501H0.552V18.045ZM24.3409 10.701C24.3169 8.78098 23.2129 7.43698 21.1249 7.43698C19.2049 7.43698 17.9329 8.63698 17.6929 10.389H17.0689C17.1409 8.80498 18.2929 6.16498 21.9649 6.16498C24.7489 6.16498 26.5969 7.82098 26.5969 10.197V16.629C26.5969 18.141 27.6529 18.021 28.7809 18.021V18.501H24.3409V16.677C22.7089 17.973 21.5809 18.717 20.0929 18.717C18.7009 18.717 17.0209 17.853 17.0209 15.933C17.0209 13.821 18.8689 13.005 21.1969 12.429C22.3489 12.165 23.2849 11.901 24.3409 11.685V10.701ZM19.1809 15.501C19.1809 16.821 20.1169 17.397 21.0769 17.397C21.9889 17.397 22.9729 16.965 24.3409 15.981V12.429C23.0209 12.765 22.0369 13.029 21.2209 13.293C19.8289 13.725 19.1809 14.421 19.1809 15.501ZM39.0253 11.133C39.1933 8.44498 38.2573 7.46098 37.0573 7.46098C36.1933 7.46098 34.9453 8.82898 33.8893 10.125V16.989C33.8893 18.117 34.6333 18.021 37.3693 18.045V18.501H29.5213V18.045C31.1533 18.021 31.6093 18.069 31.6093 17.085V8.54098C31.6093 7.19698 30.7933 7.53298 29.4493 7.91698V7.43698L33.8893 6.21298V9.23698C34.6093 8.34898 36.2893 6.18898 37.7533 6.18898C39.0733 6.18898 40.1533 7.02898 40.6093 8.10898L39.4093 11.133H39.0253ZM51.2402 7.36498L50.6642 10.629H50.2562C50.0642 7.91698 48.5042 6.81298 46.6562 6.81298C45.0962 6.81298 44.2082 7.70098 44.2082 8.82898C44.2082 10.029 45.0482 10.605 46.3922 11.109L48.5042 11.877C50.6162 12.669 51.6242 13.461 51.6242 15.141C51.6242 17.253 49.5122 18.765 46.8242 18.765C44.9042 18.765 43.0322 17.997 42.2162 17.373L42.4562 13.893H42.8882C43.2002 16.653 44.9762 18.069 46.8962 18.069C48.6482 18.069 49.6802 16.965 49.6802 15.861C49.6802 14.829 48.9122 14.301 47.1602 13.629L45.2402 12.885C43.5602 12.237 42.2402 11.349 42.2402 9.45298C42.2402 7.31698 44.1122 6.16498 46.7762 6.16498C48.6482 6.16498 50.4482 6.83698 51.2402 7.36498ZM64.6751 16.941C64.6751 18.093 65.8031 17.997 67.1231 18.045V18.501H59.7551V18.045C61.0751 17.997 62.2031 18.093 62.2031 16.941V3.09298C62.2031 1.94098 61.0751 2.15698 59.7551 2.10898V1.65298H67.1231V2.10898C65.8031 2.15698 64.6751 1.94098 64.6751 3.09298V10.293L70.5791 4.70098C71.7791 3.54898 72.1391 3.16498 72.1391 2.73298C72.1391 2.01298 71.3711 2.13298 70.0991 2.10898V1.65298H76.2191V2.10898C74.3471 2.13298 73.9151 2.58898 73.1951 3.28498L68.0111 8.25298C69.8831 10.749 73.1471 15.333 74.5391 17.061C75.1391 17.805 75.7871 17.997 76.4831 18.021L77.2511 18.045V18.501H72.8351C70.6511 15.549 68.6111 12.717 66.4031 9.78898L64.6751 11.445V16.941ZM76.9571 7.86898V7.38898L81.5171 6.16498V17.109C81.5171 18.189 82.3091 17.997 83.5811 18.045V18.501H77.1731V18.045C78.2291 17.997 79.2611 18.189 79.2611 17.109V8.94898C79.2611 7.22098 78.9011 7.41298 76.9571 7.86898ZM80.1971 3.09298C81.0371 3.09298 81.7571 2.44498 81.7571 1.53298C81.7571 0.668976 81.0131 0.0209756 80.1971 0.0209756C79.3091 0.0209756 78.6131 0.716975 78.6131 1.53298C78.6131 2.42098 79.3571 3.09298 80.1971 3.09298ZM95.0685 10.629C95.0685 8.46898 94.1805 7.53298 92.5725 7.53298C91.1805 7.53298 89.6205 8.90098 88.8765 9.42898V16.941C88.8765 18.117 89.6925 17.997 90.9645 18.045V18.501H84.5325V18.045C85.6125 17.997 86.6205 18.117 86.6205 16.941V8.58898C86.6205 7.22098 86.0685 7.48498 84.3165 7.89298V7.41298L88.8765 6.18898V8.54098C90.1725 7.70098 92.1885 6.16498 93.5085 6.16498C95.9325 6.16498 97.3485 7.79698 97.3485 10.029V16.941C97.3485 18.117 98.1165 17.997 99.4365 18.045V18.501H92.9805V18.045C94.0605 17.997 95.0685 18.117 95.0685 16.941V10.629ZM106.002 14.445C105.45 14.445 104.898 14.373 104.394 14.253C103.554 14.757 102.93 15.141 102.93 15.285C102.93 15.741 103.386 16.077 104.274 16.245L109.482 17.229C111.546 17.589 112.41 18.261 112.41 19.725C112.41 22.293 109.29 24.333 105.738 24.333C102.642 24.333 100.074 22.773 100.074 20.637C100.074 20.037 101.874 18.981 103.218 18.141C101.562 17.637 101.01 16.773 101.01 15.861C101.01 15.453 102.618 14.637 103.65 14.037C102.018 13.413 100.89 12.093 100.89 10.317C100.89 7.86898 103.17 6.18898 106.002 6.18898C107.01 6.18898 107.97 6.40498 108.762 6.78898C110.706 6.62098 111.546 6.11698 112.362 5.01298L112.722 5.13298L111.882 7.29298H109.602C110.586 8.01298 111.21 9.06898 111.21 10.317C111.21 12.861 108.81 14.445 106.002 14.445ZM105.906 6.78898C104.202 6.78898 103.29 8.20498 103.29 10.053C103.29 12.213 104.394 13.797 106.29 13.797C107.826 13.797 108.834 12.429 108.834 10.533C108.834 8.46898 107.706 6.78898 105.906 6.78898ZM102.234 20.181C102.234 22.341 103.866 23.541 106.29 23.541C108.522 23.541 110.538 22.341 110.538 20.757C110.538 19.821 109.89 19.389 108.474 19.125L104.25 18.381L104.154 18.357C103.146 19.101 102.234 19.917 102.234 20.181Z" fill="#FAB837"/>
</svg>
