<svg width="59" height="59" viewBox="0 0 59 59" fill="none" xmlns="http://www.w3.org/2000/svg">
<g opacity="0.38">
<path d="M29.5 57L35.2117 39.6328L29.5 29.5V57Z" fill="#0080FF" fill-opacity="0.2"/>
<path d="M39.6328 23.7882L43.25 15.75L29.5 29.5L39.6328 23.7882Z" fill="#0080FF" fill-opacity="0.2"/>
<path d="M35.2117 19.3672L29.5 2V29.5L35.2117 19.3672Z" fill="#0080FF" fill-opacity="0.2"/>
<path d="M23.7882 19.3672L15.75 15.75L29.5 29.5L23.7882 19.3672Z" fill="#0080FF" fill-opacity="0.2"/>
<path d="M19.3672 23.7882L2 29.5H29.5L19.3672 23.7882Z" fill="#0080FF" fill-opacity="0.2"/>
<path fill-rule="evenodd" clip-rule="evenodd" d="M29.5 29.5L39.6328 23.7882L57 29.5H29.5ZM29.5 29.5L39.6328 35.2117L43.25 43.25L29.5 29.5ZM29.5 29.5L23.7882 39.6328L15.75 43.25L29.5 29.5Z" fill="#0080FF" fill-opacity="0.2"/>
<path d="M23.7882 39.6328L29.5 57V29.5L23.7882 39.6328Z" fill="#FAB837" fill-opacity="0.5"/>
<path d="M35.2117 39.6328L43.25 43.25L29.5 29.5L35.2117 39.6328Z" fill="#FAB837" fill-opacity="0.5"/>
<path d="M39.6328 35.2117L57 29.5H29.5L39.6328 35.2117Z" fill="#FAB837" fill-opacity="0.5"/>
<path d="M43.25 15.75L35.2117 19.3672L29.5 29.5L43.25 15.75Z" fill="#FAB837" fill-opacity="0.5"/>
<path d="M29.5 2L23.7882 19.3672L29.5 29.5V2Z" fill="#FAB837" fill-opacity="0.5"/>
<path d="M15.75 15.75L19.3672 23.7882L29.5 29.5L15.75 15.75Z" fill="#FAB837" fill-opacity="0.5"/>
<path d="M2 29.5L19.3672 35.2117L29.5 29.5H2Z" fill="#FAB837" fill-opacity="0.5"/>
<path d="M19.3672 35.2117L15.75 43.25L29.5 29.5L19.3672 35.2117Z" fill="#FAB837" fill-opacity="0.5"/>
<path d="M29.5 2L35.2117 19.3672M29.5 2L23.7882 19.3672M29.5 2V29.5M35.2117 19.3672L43.25 15.75M35.2117 19.3672L29.5 29.5M23.7882 19.3672L15.75 15.75M23.7882 19.3672L29.5 29.5M15.75 15.75L19.3672 23.7882M15.75 15.75L29.5 29.5M19.3672 23.7882L2 29.5M19.3672 23.7882L29.5 29.5M2 29.5L19.3672 35.2117M2 29.5H29.5M19.3672 35.2117L15.75 43.25M19.3672 35.2117L29.5 29.5M15.75 43.25L23.7882 39.6328M15.75 43.25L29.5 29.5M23.7882 39.6328L29.5 57M23.7882 39.6328L29.5 29.5M29.5 57L35.2117 39.6328M29.5 57V29.5M35.2117 39.6328L43.25 43.25M35.2117 39.6328L29.5 29.5M43.25 43.25L39.6328 35.2117M43.25 43.25L29.5 29.5M39.6328 35.2117L57 29.5M39.6328 35.2117L29.5 29.5M57 29.5L39.6328 23.7882M57 29.5H29.5M39.6328 23.7882L43.25 15.75M39.6328 23.7882L29.5 29.5M43.25 15.75L29.5 29.5" stroke="#FAB837"/>
</g>
</svg>
