<svg width="34" height="35" viewBox="0 0 34 35" fill="none" xmlns="http://www.w3.org/2000/svg">
<path id="northstar-simple" d="M17 2.5L20.1155 11.973M17 2.5L13.8845 11.973M17 2.5V17.5M20.1155 11.973L24.5 10M20.1155 11.973L17 17.5M13.8845 11.973L9.5 10M13.8845 11.973L17 17.5M9.5 10L11.473 14.3845M9.5 10L17 17.5M11.473 14.3845L2 17.5M11.473 14.3845L17 17.5M2 17.5L11.473 20.6155M2 17.5H17M11.473 20.6155L9.5 25M11.473 20.6155L17 17.5M9.5 25L13.8845 23.027M9.5 25L17 17.5M13.8845 23.027L17 32.5M13.8845 23.027L17 17.5M17 32.5L20.1155 23.027M17 32.5V17.5M20.1155 23.027L24.5 25M20.1155 23.027L17 17.5M24.5 25L22.527 20.6155M24.5 25L17 17.5M22.527 20.6155L32 17.5M22.527 20.6155L17 17.5M32 17.5L22.527 14.3845M32 17.5H17M22.527 14.3845L24.5 10M22.527 14.3845L17 17.5M24.5 10L17 17.5" stroke="#0080FF"/>
</svg>
