<svg width="404" height="405" viewBox="0 0 404 405" fill="none" xmlns="http://www.w3.org/2000/svg">
<path opacity="0.2" d="M202 2.5L243.54 128.807M202 2.5L160.46 128.807M202 2.5V202.5M243.54 128.807L302 102.5M243.54 128.807L202 202.5M160.46 128.807L102 102.5M160.46 128.807L202 202.5M102 102.5L128.307 160.96M102 102.5L202 202.5M128.307 160.96L2 202.5M128.307 160.96L202 202.5M2 202.5L128.307 244.04M2 202.5H202M128.307 244.04L102 302.5M128.307 244.04L202 202.5M102 302.5L160.46 276.193M102 302.5L202 202.5M160.46 276.193L202 402.5M160.46 276.193L202 202.5M202 402.5L243.54 276.193M202 402.5V202.5M243.54 276.193L302 302.5M243.54 276.193L202 202.5M302 302.5L275.693 244.04M302 302.5L202 202.5M275.693 244.04L402 202.5M275.693 244.04L202 202.5M402 202.5L275.693 160.96M402 202.5H202M275.693 160.96L302 102.5M275.693 160.96L202 202.5M302 102.5L202 202.5" stroke="#FAB837"/>
</svg>
