<svg width="64" height="65" viewBox="0 0 64 65" fill="none" xmlns="http://www.w3.org/2000/svg">
<path id="Union" d="M32 2.5L38.231 21.446M32 2.5L25.769 21.446M32 2.5V32.5M38.231 21.446L47 17.5M38.231 21.446L32 32.5M25.769 21.446L17 17.5M25.769 21.446L32 32.5M17 17.5L20.946 26.269M17 17.5L32 32.5M20.946 26.269L2 32.5M20.946 26.269L32 32.5M2 32.5L20.946 38.731M2 32.5H32M20.946 38.731L17 47.5M20.946 38.731L32 32.5M17 47.5L25.769 43.5539M17 47.5L32 32.5M25.769 43.5539L32 62.5M25.769 43.5539L32 32.5M32 62.5L38.231 43.5539M32 62.5V32.5M38.231 43.5539L47 47.5M38.231 43.5539L32 32.5M47 47.5L43.0539 38.731M47 47.5L32 32.5M43.0539 38.731L62 32.5M43.0539 38.731L32 32.5M62 32.5L43.0539 26.269M62 32.5H32M43.0539 26.269L47 17.5M43.0539 26.269L32 32.5M47 17.5L32 32.5" stroke="#0080FF"/>
</svg>
