<svg width="782" height="132" viewBox="0 0 782 132" fill="none" xmlns="http://www.w3.org/2000/svg">
<path d="M4.288 53.76V4.416H0V0.959999H7.776V53.76H4.288Z" fill="white"/>
<path d="M4.288 53.76V4.416H0V0.959999H7.776V53.76H4.288Z" fill="#FAB837"/>
<path d="M23.551 36.672V33.76H44.159V36.672H23.551Z" fill="white"/>
<path d="M23.551 36.672V33.76H44.159V36.672H23.551Z" fill="#FAB837"/>
<path d="M60.2805 53.76V0.959999H71.5125C75.2672 0.959999 78.7552 1.632 81.9765 2.976C85.2192 4.32 88.0458 6.19733 90.4565 8.608C92.8672 10.9973 94.7445 13.792 96.0885 16.992C97.4538 20.192 98.1365 23.648 98.1365 27.36C98.1365 31.0933 97.4645 34.56 96.1205 37.76C94.7765 40.96 92.8885 43.7653 90.4565 46.176C88.0458 48.5653 85.2192 50.432 81.9765 51.776C78.7552 53.0987 75.2672 53.76 71.5125 53.76H60.2805ZM63.7685 50.624H71.2885C74.5525 50.624 77.5925 50.0373 80.4085 48.864C83.2245 47.6693 85.6885 46.016 87.8005 43.904C89.9125 41.792 91.5552 39.328 92.7285 36.512C93.9232 33.696 94.5205 30.6453 94.5205 27.36C94.5205 24.0747 93.9338 21.024 92.7605 18.208C91.5872 15.392 89.9338 12.928 87.8005 10.816C85.6885 8.704 83.2245 7.06133 80.4085 5.888C77.5925 4.69333 74.5525 4.096 71.2885 4.096H63.7685V50.624Z" fill="white"/>
<path d="M60.2805 53.76V0.959999H71.5125C75.2672 0.959999 78.7552 1.632 81.9765 2.976C85.2192 4.32 88.0458 6.19733 90.4565 8.608C92.8672 10.9973 94.7445 13.792 96.0885 16.992C97.4538 20.192 98.1365 23.648 98.1365 27.36C98.1365 31.0933 97.4645 34.56 96.1205 37.76C94.7765 40.96 92.8885 43.7653 90.4565 46.176C88.0458 48.5653 85.2192 50.432 81.9765 51.776C78.7552 53.0987 75.2672 53.76 71.5125 53.76H60.2805ZM63.7685 50.624H71.2885C74.5525 50.624 77.5925 50.0373 80.4085 48.864C83.2245 47.6693 85.6885 46.016 87.8005 43.904C89.9125 41.792 91.5552 39.328 92.7285 36.512C93.9232 33.696 94.5205 30.6453 94.5205 27.36C94.5205 24.0747 93.9338 21.024 92.7605 18.208C91.5872 15.392 89.9338 12.928 87.8005 10.816C85.6885 8.704 83.2245 7.06133 80.4085 5.888C77.5925 4.69333 74.5525 4.096 71.2885 4.096H63.7685V50.624Z" fill="#FAB837"/>
<path d="M108.105 53.76L128.777 0.959999H132.042L152.714 53.76H148.938L142.025 35.744H118.826L111.882 53.76H108.105ZM120.009 32.64H140.842L130.41 5.504L120.009 32.64Z" fill="white"/>
<path d="M108.105 53.76L128.777 0.959999H132.042L152.714 53.76H148.938L142.025 35.744H118.826L111.882 53.76H108.105ZM120.009 32.64H140.842L130.41 5.504L120.009 32.64Z" fill="#FAB837"/>
<path d="M172.925 53.76V31.04L155.005 0.959999H159.229L174.653 27.2L190.109 0.959999H194.333L176.413 31.04V53.76H172.925Z" fill="white"/>
<path d="M172.925 53.76V31.04L155.005 0.959999H159.229L174.653 27.2L190.109 0.959999H194.333L176.413 31.04V53.76H172.925Z" fill="#FAB837"/>
<path d="M222.158 53.76V0.959999H238.605C242.04 0.959999 245.059 1.55733 247.661 2.752C250.285 3.94667 252.333 5.696 253.805 8C255.277 10.304 256.013 13.152 256.013 16.544C256.013 19.8933 255.277 22.784 253.805 25.216C252.333 27.6267 250.285 29.4933 247.661 30.816C245.059 32.1173 242.04 32.768 238.605 32.768H230.542V53.76H222.158ZM230.542 25.984H236.141C238.253 25.984 240.141 25.6427 241.805 24.96C243.491 24.2773 244.824 23.264 245.805 21.92C246.787 20.5547 247.277 18.8373 247.277 16.768C247.277 14.6987 246.787 12.992 245.805 11.648C244.824 10.304 243.491 9.312 241.805 8.672C240.141 8.01067 238.253 7.68 236.141 7.68H230.542V25.984Z" fill="white"/>
<path d="M222.158 53.76V0.959999H238.605C242.04 0.959999 245.059 1.55733 247.661 2.752C250.285 3.94667 252.333 5.696 253.805 8C255.277 10.304 256.013 13.152 256.013 16.544C256.013 19.8933 255.277 22.784 253.805 25.216C252.333 27.6267 250.285 29.4933 247.661 30.816C245.059 32.1173 242.04 32.768 238.605 32.768H230.542V53.76H222.158ZM230.542 25.984H236.141C238.253 25.984 240.141 25.6427 241.805 24.96C243.491 24.2773 244.824 23.264 245.805 21.92C246.787 20.5547 247.277 18.8373 247.277 16.768C247.277 14.6987 246.787 12.992 245.805 11.648C244.824 10.304 243.491 9.312 241.805 8.672C240.141 8.01067 238.253 7.68 236.141 7.68H230.542V25.984Z" fill="#FAB837"/>
<path d="M289.884 54.784C286.193 54.784 282.737 54.08 279.516 52.672C276.294 51.264 273.467 49.312 271.035 46.816C268.603 44.2987 266.694 41.3867 265.307 38.08C263.942 34.752 263.259 31.1893 263.259 27.392C263.259 23.5733 263.942 20.0107 265.307 16.704C266.694 13.3973 268.603 10.496 271.035 8C273.467 5.48267 276.294 3.52 279.516 2.112C282.737 0.704 286.193 0 289.884 0C293.574 0 297.03 0.704 300.251 2.112C303.473 3.52 306.3 5.48267 308.732 8C311.164 10.496 313.062 13.3973 314.427 16.704C315.814 20.0107 316.508 23.5733 316.508 27.392C316.508 31.1893 315.814 34.752 314.427 38.08C313.062 41.3867 311.164 44.2987 308.732 46.816C306.3 49.312 303.473 51.264 300.251 52.672C297.03 54.08 293.574 54.784 289.884 54.784ZM289.884 46.72C292.401 46.72 294.726 46.24 296.859 45.28C299.014 44.2987 300.881 42.944 302.46 41.216C304.06 39.4667 305.297 37.4187 306.172 35.072C307.046 32.7253 307.483 30.1653 307.483 27.392C307.483 24.6187 307.046 22.0587 306.172 19.712C305.297 17.3653 304.06 15.328 302.46 13.6C300.881 11.8507 299.014 10.496 296.859 9.536C294.726 8.55467 292.401 8.064 289.884 8.064C287.388 8.064 285.062 8.55467 282.908 9.536C280.774 10.496 278.907 11.8507 277.307 13.6C275.729 15.328 274.502 17.3653 273.628 19.712C272.753 22.0587 272.315 24.6187 272.315 27.392C272.315 30.1653 272.753 32.7253 273.628 35.072C274.502 37.4187 275.729 39.4667 277.307 41.216C278.907 42.944 280.774 44.2987 282.908 45.28C285.062 46.24 287.388 46.72 289.884 46.72Z" fill="white"/>
<path d="M289.884 54.784C286.193 54.784 282.737 54.08 279.516 52.672C276.294 51.264 273.467 49.312 271.035 46.816C268.603 44.2987 266.694 41.3867 265.307 38.08C263.942 34.752 263.259 31.1893 263.259 27.392C263.259 23.5733 263.942 20.0107 265.307 16.704C266.694 13.3973 268.603 10.496 271.035 8C273.467 5.48267 276.294 3.52 279.516 2.112C282.737 0.704 286.193 0 289.884 0C293.574 0 297.03 0.704 300.251 2.112C303.473 3.52 306.3 5.48267 308.732 8C311.164 10.496 313.062 13.3973 314.427 16.704C315.814 20.0107 316.508 23.5733 316.508 27.392C316.508 31.1893 315.814 34.752 314.427 38.08C313.062 41.3867 311.164 44.2987 308.732 46.816C306.3 49.312 303.473 51.264 300.251 52.672C297.03 54.08 293.574 54.784 289.884 54.784ZM289.884 46.72C292.401 46.72 294.726 46.24 296.859 45.28C299.014 44.2987 300.881 42.944 302.46 41.216C304.06 39.4667 305.297 37.4187 306.172 35.072C307.046 32.7253 307.483 30.1653 307.483 27.392C307.483 24.6187 307.046 22.0587 306.172 19.712C305.297 17.3653 304.06 15.328 302.46 13.6C300.881 11.8507 299.014 10.496 296.859 9.536C294.726 8.55467 292.401 8.064 289.884 8.064C287.388 8.064 285.062 8.55467 282.908 9.536C280.774 10.496 278.907 11.8507 277.307 13.6C275.729 15.328 274.502 17.3653 273.628 19.712C272.753 22.0587 272.315 24.6187 272.315 27.392C272.315 30.1653 272.753 32.7253 273.628 35.072C274.502 37.4187 275.729 39.4667 277.307 41.216C278.907 42.944 280.774 44.2987 282.908 45.28C285.062 46.24 287.388 46.72 289.884 46.72Z" fill="#FAB837"/>
<path d="M328.345 53.76V0.959999H336.729V53.76H328.345Z" fill="white"/>
<path d="M328.345 53.76V0.959999H336.729V53.76H328.345Z" fill="#FAB837"/>
<path d="M352.158 53.76V0.959999H360.542L385.31 39.712V0.959999H393.694V53.76H385.31L360.542 15.04V53.76H352.158Z" fill="white"/>
<path d="M352.158 53.76V0.959999H360.542L385.31 39.712V0.959999H393.694V53.76H385.31L360.542 15.04V53.76H352.158Z" fill="#FAB837"/>
<path d="M414.768 53.76V8.416H400.401V0.959999H437.521V8.416H423.121V53.76H414.768Z" fill="white"/>
<path d="M414.768 53.76V8.416H400.401V0.959999H437.521V8.416H423.121V53.76H414.768Z" fill="#FAB837"/>
<path d="M447.283 53.76V0.959999H455.667V23.616H478.674V0.959999H487.026V53.76H478.674V30.976H455.667V53.76H447.283Z" fill="white"/>
<path d="M447.283 53.76V0.959999H455.667V23.616H478.674V0.959999H487.026V53.76H478.674V30.976H455.667V53.76H447.283Z" fill="#FAB837"/>
<path d="M525.446 54.784C521.755 54.784 518.299 54.08 515.078 52.672C511.857 51.264 509.03 49.312 506.598 46.816C504.166 44.2987 502.257 41.3867 500.87 38.08C499.505 34.752 498.822 31.1893 498.822 27.392C498.822 23.5733 499.505 20.0107 500.87 16.704C502.257 13.3973 504.166 10.496 506.598 8C509.03 5.48267 511.857 3.52 515.078 2.112C518.299 0.704 521.755 0 525.446 0C529.137 0 532.593 0.704 535.814 2.112C539.035 3.52 541.862 5.48267 544.294 8C546.726 10.496 548.625 13.3973 549.99 16.704C551.377 20.0107 552.07 23.5733 552.07 27.392C552.07 31.1893 551.377 34.752 549.99 38.08C548.625 41.3867 546.726 44.2987 544.294 46.816C541.862 49.312 539.035 51.264 535.814 52.672C532.593 54.08 529.137 54.784 525.446 54.784ZM525.446 46.72C527.963 46.72 530.289 46.24 532.422 45.28C534.577 44.2987 536.443 42.944 538.022 41.216C539.622 39.4667 540.859 37.4187 541.734 35.072C542.609 32.7253 543.046 30.1653 543.046 27.392C543.046 24.6187 542.609 22.0587 541.734 19.712C540.859 17.3653 539.622 15.328 538.022 13.6C536.443 11.8507 534.577 10.496 532.422 9.536C530.289 8.55467 527.963 8.064 525.446 8.064C522.95 8.064 520.625 8.55467 518.47 9.536C516.337 10.496 514.47 11.8507 512.87 13.6C511.291 15.328 510.065 17.3653 509.19 19.712C508.315 22.0587 507.878 24.6187 507.878 27.392C507.878 30.1653 508.315 32.7253 509.19 35.072C510.065 37.4187 511.291 39.4667 512.87 41.216C514.47 42.944 516.337 44.2987 518.47 45.28C520.625 46.24 522.95 46.72 525.446 46.72Z" fill="white"/>
<path d="M525.446 54.784C521.755 54.784 518.299 54.08 515.078 52.672C511.857 51.264 509.03 49.312 506.598 46.816C504.166 44.2987 502.257 41.3867 500.87 38.08C499.505 34.752 498.822 31.1893 498.822 27.392C498.822 23.5733 499.505 20.0107 500.87 16.704C502.257 13.3973 504.166 10.496 506.598 8C509.03 5.48267 511.857 3.52 515.078 2.112C518.299 0.704 521.755 0 525.446 0C529.137 0 532.593 0.704 535.814 2.112C539.035 3.52 541.862 5.48267 544.294 8C546.726 10.496 548.625 13.3973 549.99 16.704C551.377 20.0107 552.07 23.5733 552.07 27.392C552.07 31.1893 551.377 34.752 549.99 38.08C548.625 41.3867 546.726 44.2987 544.294 46.816C541.862 49.312 539.035 51.264 535.814 52.672C532.593 54.08 529.137 54.784 525.446 54.784ZM525.446 46.72C527.963 46.72 530.289 46.24 532.422 45.28C534.577 44.2987 536.443 42.944 538.022 41.216C539.622 39.4667 540.859 37.4187 541.734 35.072C542.609 32.7253 543.046 30.1653 543.046 27.392C543.046 24.6187 542.609 22.0587 541.734 19.712C540.859 17.3653 539.622 15.328 538.022 13.6C536.443 11.8507 534.577 10.496 532.422 9.536C530.289 8.55467 527.963 8.064 525.446 8.064C522.95 8.064 520.625 8.55467 518.47 9.536C516.337 10.496 514.47 11.8507 512.87 13.6C511.291 15.328 510.065 17.3653 509.19 19.712C508.315 22.0587 507.878 24.6187 507.878 27.392C507.878 30.1653 508.315 32.7253 509.19 35.072C510.065 37.4187 511.291 39.4667 512.87 41.216C514.47 42.944 516.337 44.2987 518.47 45.28C520.625 46.24 522.95 46.72 525.446 46.72Z" fill="#FAB837"/>
<path d="M563.907 53.76V0.959999H572.292V46.4H592.451V53.76H563.907Z" fill="white"/>
<path d="M563.907 53.76V0.959999H572.292V46.4H592.451V53.76H563.907Z" fill="#FAB837"/>
<path d="M602.22 53.76V0.959999H615.788C619.543 0.959999 623.031 1.632 626.252 2.976C629.473 4.32 632.289 6.19733 634.7 8.608C637.132 10.9973 639.02 13.8027 640.364 17.024C641.729 20.224 642.412 23.68 642.412 27.392C642.412 31.104 641.74 34.56 640.396 37.76C639.052 40.96 637.164 43.7653 634.732 46.176C632.321 48.5653 629.495 50.432 626.252 51.776C623.031 53.0987 619.543 53.76 615.788 53.76H602.22ZM610.604 46.24H614.892C617.537 46.24 619.98 45.7707 622.22 44.832C624.481 43.8933 626.444 42.5707 628.108 40.864C629.793 39.1573 631.095 37.1627 632.012 34.88C632.951 32.576 633.42 30.0693 633.42 27.36C633.42 24.672 632.951 22.176 632.012 19.872C631.095 17.568 629.793 15.5733 628.108 13.888C626.444 12.1813 624.481 10.8587 622.22 9.92C619.98 8.96 617.537 8.48 614.892 8.48H610.604V46.24Z" fill="white"/>
<path d="M602.22 53.76V0.959999H615.788C619.543 0.959999 623.031 1.632 626.252 2.976C629.473 4.32 632.289 6.19733 634.7 8.608C637.132 10.9973 639.02 13.8027 640.364 17.024C641.729 20.224 642.412 23.68 642.412 27.392C642.412 31.104 641.74 34.56 640.396 37.76C639.052 40.96 637.164 43.7653 634.732 46.176C632.321 48.5653 629.495 50.432 626.252 51.776C623.031 53.0987 619.543 53.76 615.788 53.76H602.22ZM610.604 46.24H614.892C617.537 46.24 619.98 45.7707 622.22 44.832C624.481 43.8933 626.444 42.5707 628.108 40.864C629.793 39.1573 631.095 37.1627 632.012 34.88C632.951 32.576 633.42 30.0693 633.42 27.36C633.42 24.672 632.951 22.176 632.012 19.872C631.095 17.568 629.793 15.5733 628.108 13.888C626.444 12.1813 624.481 10.8587 622.22 9.92C619.98 8.96 617.537 8.48 614.892 8.48H610.604V46.24Z" fill="#FAB837"/>
<path d="M654.095 53.76V0.959999H662.479V53.76H654.095Z" fill="white"/>
<path d="M654.095 53.76V0.959999H662.479V53.76H654.095Z" fill="#FAB837"/>
<path d="M677.907 53.76V0.959999H686.292L711.06 39.712V0.959999H719.443V53.76H711.06L686.292 15.04V53.76H677.907Z" fill="white"/>
<path d="M677.907 53.76V0.959999H686.292L711.06 39.712V0.959999H719.443V53.76H711.06L686.292 15.04V53.76H677.907Z" fill="#FAB837"/>
<path d="M757.181 54.784C753.533 54.784 750.141 54.0907 747.005 52.704C743.869 51.296 741.117 49.3547 738.749 46.88C736.402 44.384 734.568 41.472 733.245 38.144C731.944 34.816 731.293 31.232 731.293 27.392C731.293 23.744 731.901 20.2773 733.117 16.992C734.333 13.6853 736.093 10.7627 738.397 8.224C740.701 5.68533 743.485 3.68 746.749 2.208C750.034 0.736 753.725 0 757.821 0C760.296 0 762.717 0.287999 765.085 0.863998C767.453 1.44 769.682 2.26133 771.773 3.328C773.885 4.39467 775.784 5.68533 777.469 7.2L773.437 13.664C771.517 11.744 769.17 10.24 766.397 9.152C763.624 8.04267 760.786 7.488 757.885 7.488C755.09 7.488 752.605 7.98933 750.429 8.992C748.253 9.99467 746.408 11.4027 744.893 13.216C743.4 15.008 742.258 17.088 741.469 19.456C740.701 21.8027 740.317 24.3307 740.317 27.04C740.317 29.9627 740.754 32.6507 741.629 35.104C742.504 37.536 743.72 39.6587 745.277 41.472C746.856 43.264 748.69 44.6507 750.781 45.632C752.872 46.592 755.122 47.072 757.533 47.072C759.496 47.072 761.394 46.752 763.229 46.112C765.064 45.472 766.706 44.5547 768.157 43.36C769.608 42.1653 770.76 40.7467 771.613 39.104C772.466 37.4613 772.893 35.648 772.893 33.664V32.512H757.021V25.952H781.437V32.768C781.437 36.1813 780.754 39.2427 779.389 41.952C778.024 44.6613 776.178 46.976 773.853 48.896C771.549 50.7947 768.957 52.256 766.077 53.28C763.197 54.2827 760.232 54.784 757.181 54.784Z" fill="white"/>
<path d="M757.181 54.784C753.533 54.784 750.141 54.0907 747.005 52.704C743.869 51.296 741.117 49.3547 738.749 46.88C736.402 44.384 734.568 41.472 733.245 38.144C731.944 34.816 731.293 31.232 731.293 27.392C731.293 23.744 731.901 20.2773 733.117 16.992C734.333 13.6853 736.093 10.7627 738.397 8.224C740.701 5.68533 743.485 3.68 746.749 2.208C750.034 0.736 753.725 0 757.821 0C760.296 0 762.717 0.287999 765.085 0.863998C767.453 1.44 769.682 2.26133 771.773 3.328C773.885 4.39467 775.784 5.68533 777.469 7.2L773.437 13.664C771.517 11.744 769.17 10.24 766.397 9.152C763.624 8.04267 760.786 7.488 757.885 7.488C755.09 7.488 752.605 7.98933 750.429 8.992C748.253 9.99467 746.408 11.4027 744.893 13.216C743.4 15.008 742.258 17.088 741.469 19.456C740.701 21.8027 740.317 24.3307 740.317 27.04C740.317 29.9627 740.754 32.6507 741.629 35.104C742.504 37.536 743.72 39.6587 745.277 41.472C746.856 43.264 748.69 44.6507 750.781 45.632C752.872 46.592 755.122 47.072 757.533 47.072C759.496 47.072 761.394 46.752 763.229 46.112C765.064 45.472 766.706 44.5547 768.157 43.36C769.608 42.1653 770.76 40.7467 771.613 39.104C772.466 37.4613 772.893 35.648 772.893 33.664V32.512H757.021V25.952H781.437V32.768C781.437 36.1813 780.754 39.2427 779.389 41.952C778.024 44.6613 776.178 46.976 773.853 48.896C771.549 50.7947 768.957 52.256 766.077 53.28C763.197 54.2827 760.232 54.784 757.181 54.784Z" fill="#FAB837"/>
<path d="M17.64 117.624C17.08 119.677 16.8 121.311 16.8 122.524C16.8 124.111 17.29 125.184 18.27 125.744C19.2967 126.304 20.93 126.584 23.17 126.584L22.33 129.384H0L0.77 126.584C2.17 126.584 3.36 126.491 4.34 126.304C5.32 126.071 6.16 125.651 6.86 125.044C7.60667 124.437 8.23667 123.597 8.75 122.524C9.26333 121.451 9.75333 120.051 10.22 118.324L18.41 87.3839C19.11 84.8173 19.46 82.9039 19.46 81.6439C19.46 80.1973 18.9233 79.2873 17.85 78.9139C16.8233 78.4939 15.05 78.2839 12.53 78.2839L13.3 75.4839H36.05L35.28 78.2839C33.74 78.2839 32.4567 78.4473 31.43 78.7739C30.4033 79.0539 29.5167 79.6139 28.77 80.4539C28.0233 81.2939 27.3467 82.4606 26.74 83.9539C26.18 85.4473 25.5967 87.3839 24.99 89.7639L17.64 117.624Z" fill="white"/>
<path d="M17.64 117.624C17.08 119.677 16.8 121.311 16.8 122.524C16.8 124.111 17.29 125.184 18.27 125.744C19.2967 126.304 20.93 126.584 23.17 126.584L22.33 129.384H0L0.77 126.584C2.17 126.584 3.36 126.491 4.34 126.304C5.32 126.071 6.16 125.651 6.86 125.044C7.60667 124.437 8.23667 123.597 8.75 122.524C9.26333 121.451 9.75333 120.051 10.22 118.324L18.41 87.3839C19.11 84.8173 19.46 82.9039 19.46 81.6439C19.46 80.1973 18.9233 79.2873 17.85 78.9139C16.8233 78.4939 15.05 78.2839 12.53 78.2839L13.3 75.4839H36.05L35.28 78.2839C33.74 78.2839 32.4567 78.4473 31.43 78.7739C30.4033 79.0539 29.5167 79.6139 28.77 80.4539C28.0233 81.2939 27.3467 82.4606 26.74 83.9539C26.18 85.4473 25.5967 87.3839 24.99 89.7639L17.64 117.624Z" fill="#FAB837"/>
<path d="M94.0045 83.5339L65.3045 129.384H62.2945L56.8345 83.5339H56.5545L47.5945 117.624C47.4545 118.184 47.3379 118.721 47.2445 119.234C47.1512 119.747 47.1045 120.237 47.1045 120.704C47.1045 122.664 47.6412 124.134 48.7145 125.114C49.8345 126.047 51.3045 126.537 53.1245 126.584L52.2845 129.384H32.9645L33.7345 126.584C35.9279 126.584 37.8879 125.814 39.6145 124.274C41.3412 122.687 42.5312 120.704 43.1845 118.324L51.3745 87.3839C52.0745 84.8173 52.4245 82.9039 52.4245 81.6439C52.4245 80.1973 51.8879 79.2873 50.8145 78.9139C49.7879 78.4939 48.0145 78.2839 45.4945 78.2839L46.2645 75.4839H63.0645L68.0345 117.204H68.3145L94.7045 75.4839H109.475L108.705 78.2839C107.351 78.2839 106.255 78.4473 105.415 78.7739C104.575 79.0539 103.828 79.6139 103.175 80.4539C102.568 81.2939 102.008 82.4606 101.495 83.9539C100.981 85.4473 100.421 87.3839 99.8145 89.7639L92.4645 117.624C91.9045 119.677 91.6245 121.311 91.6245 122.524C91.6245 124.111 92.1612 125.184 93.2345 125.744C94.3545 126.304 96.1745 126.584 98.6945 126.584L97.8545 129.384H75.5245L76.2945 126.584C77.5545 126.584 78.6279 126.491 79.5145 126.304C80.4012 126.071 81.1712 125.651 81.8245 125.044C82.5245 124.437 83.1079 123.597 83.5745 122.524C84.0879 121.451 84.5779 120.051 85.0445 118.324L94.2845 83.5339H94.0045Z" fill="white"/>
<path d="M94.0045 83.5339L65.3045 129.384H62.2945L56.8345 83.5339H56.5545L47.5945 117.624C47.4545 118.184 47.3379 118.721 47.2445 119.234C47.1512 119.747 47.1045 120.237 47.1045 120.704C47.1045 122.664 47.6412 124.134 48.7145 125.114C49.8345 126.047 51.3045 126.537 53.1245 126.584L52.2845 129.384H32.9645L33.7345 126.584C35.9279 126.584 37.8879 125.814 39.6145 124.274C41.3412 122.687 42.5312 120.704 43.1845 118.324L51.3745 87.3839C52.0745 84.8173 52.4245 82.9039 52.4245 81.6439C52.4245 80.1973 51.8879 79.2873 50.8145 78.9139C49.7879 78.4939 48.0145 78.2839 45.4945 78.2839L46.2645 75.4839H63.0645L68.0345 117.204H68.3145L94.7045 75.4839H109.475L108.705 78.2839C107.351 78.2839 106.255 78.4473 105.415 78.7739C104.575 79.0539 103.828 79.6139 103.175 80.4539C102.568 81.2939 102.008 82.4606 101.495 83.9539C100.981 85.4473 100.421 87.3839 99.8145 89.7639L92.4645 117.624C91.9045 119.677 91.6245 121.311 91.6245 122.524C91.6245 124.111 92.1612 125.184 93.2345 125.744C94.3545 126.304 96.1745 126.584 98.6945 126.584L97.8545 129.384H75.5245L76.2945 126.584C77.5545 126.584 78.6279 126.491 79.5145 126.304C80.4012 126.071 81.1712 125.651 81.8245 125.044C82.5245 124.437 83.1079 123.597 83.5745 122.524C84.0879 121.451 84.5779 120.051 85.0445 118.324L94.2845 83.5339H94.0045Z" fill="#FAB837"/>
<path d="M168.872 83.5339L140.172 129.384H137.162L131.702 83.5339H131.422L122.462 117.624C122.322 118.184 122.205 118.721 122.112 119.234C122.018 119.747 121.972 120.237 121.972 120.704C121.972 122.664 122.508 124.134 123.582 125.114C124.702 126.047 126.172 126.537 127.992 126.584L127.152 129.384H107.832L108.602 126.584C110.795 126.584 112.755 125.814 114.482 124.274C116.208 122.687 117.398 120.704 118.052 118.324L126.242 87.3839C126.942 84.8173 127.292 82.9039 127.292 81.6439C127.292 80.1973 126.755 79.2873 125.682 78.9139C124.655 78.4939 122.882 78.2839 120.362 78.2839L121.132 75.4839H137.932L142.902 117.204H143.182L169.572 75.4839H184.342L183.572 78.2839C182.218 78.2839 181.122 78.4473 180.282 78.7739C179.442 79.0539 178.695 79.6139 178.042 80.4539C177.435 81.2939 176.875 82.4606 176.362 83.9539C175.848 85.4473 175.288 87.3839 174.682 89.7639L167.332 117.624C166.772 119.677 166.492 121.311 166.492 122.524C166.492 124.111 167.028 125.184 168.102 125.744C169.222 126.304 171.042 126.584 173.562 126.584L172.722 129.384H150.392L151.162 126.584C152.422 126.584 153.495 126.491 154.382 126.304C155.268 126.071 156.038 125.651 156.692 125.044C157.392 124.437 157.975 123.597 158.442 122.524C158.955 121.451 159.445 120.051 159.912 118.324L169.152 83.5339H168.872Z" fill="white"/>
<path d="M168.872 83.5339L140.172 129.384H137.162L131.702 83.5339H131.422L122.462 117.624C122.322 118.184 122.205 118.721 122.112 119.234C122.018 119.747 121.972 120.237 121.972 120.704C121.972 122.664 122.508 124.134 123.582 125.114C124.702 126.047 126.172 126.537 127.992 126.584L127.152 129.384H107.832L108.602 126.584C110.795 126.584 112.755 125.814 114.482 124.274C116.208 122.687 117.398 120.704 118.052 118.324L126.242 87.3839C126.942 84.8173 127.292 82.9039 127.292 81.6439C127.292 80.1973 126.755 79.2873 125.682 78.9139C124.655 78.4939 122.882 78.2839 120.362 78.2839L121.132 75.4839H137.932L142.902 117.204H143.182L169.572 75.4839H184.342L183.572 78.2839C182.218 78.2839 181.122 78.4473 180.282 78.7739C179.442 79.0539 178.695 79.6139 178.042 80.4539C177.435 81.2939 176.875 82.4606 176.362 83.9539C175.848 85.4473 175.288 87.3839 174.682 89.7639L167.332 117.624C166.772 119.677 166.492 121.311 166.492 122.524C166.492 124.111 167.028 125.184 168.102 125.744C169.222 126.304 171.042 126.584 173.562 126.584L172.722 129.384H150.392L151.162 126.584C152.422 126.584 153.495 126.491 154.382 126.304C155.268 126.071 156.038 125.651 156.692 125.044C157.392 124.437 157.975 123.597 158.442 122.524C158.955 121.451 159.445 120.051 159.912 118.324L169.152 83.5339H168.872Z" fill="#FAB837"/>
<path d="M183.539 126.584C185.079 126.584 186.339 126.467 187.319 126.234C188.346 126.001 189.186 125.581 189.839 124.974C190.539 124.321 191.122 123.481 191.589 122.454C192.056 121.381 192.499 120.004 192.919 118.324L201.039 87.4539C201.366 86.2406 201.599 85.1906 201.739 84.3039C201.926 83.4173 202.019 82.6473 202.019 81.9939C202.019 80.4539 201.482 79.4506 200.409 78.9839C199.336 78.5173 197.539 78.2839 195.019 78.2839L195.789 75.4839H234.009V89.6239H231.349C230.742 87.3839 230.066 85.5639 229.319 84.1639C228.572 82.7173 227.709 81.5973 226.729 80.8039C225.796 79.9639 224.722 79.3806 223.509 79.0539C222.342 78.7273 221.036 78.5639 219.589 78.5639H210.489L205.029 99.3539H209.439C210.699 99.3539 211.772 99.2373 212.659 99.0039C213.546 98.7706 214.339 98.3739 215.039 97.8139C215.786 97.2073 216.462 96.3906 217.069 95.3639C217.722 94.3373 218.422 93.0073 219.169 91.3739H221.759L217.559 112.094H214.759C214.899 110.694 214.969 109.481 214.969 108.454C214.969 106.354 214.572 104.837 213.779 103.904C212.986 102.924 211.516 102.434 209.369 102.434H204.119L200.129 117.484C199.709 119.024 199.499 120.331 199.499 121.404C199.499 123.084 200.246 124.344 201.739 125.184C203.232 125.977 205.799 126.374 209.439 126.374C212.099 126.374 214.409 126.164 216.369 125.744C218.376 125.324 220.102 124.671 221.549 123.784C223.042 122.851 224.326 121.637 225.399 120.144C226.519 118.651 227.569 116.807 228.549 114.614H231.839L226.379 129.384H182.769L183.539 126.584Z" fill="white"/>
<path d="M183.539 126.584C185.079 126.584 186.339 126.467 187.319 126.234C188.346 126.001 189.186 125.581 189.839 124.974C190.539 124.321 191.122 123.481 191.589 122.454C192.056 121.381 192.499 120.004 192.919 118.324L201.039 87.4539C201.366 86.2406 201.599 85.1906 201.739 84.3039C201.926 83.4173 202.019 82.6473 202.019 81.9939C202.019 80.4539 201.482 79.4506 200.409 78.9839C199.336 78.5173 197.539 78.2839 195.019 78.2839L195.789 75.4839H234.009V89.6239H231.349C230.742 87.3839 230.066 85.5639 229.319 84.1639C228.572 82.7173 227.709 81.5973 226.729 80.8039C225.796 79.9639 224.722 79.3806 223.509 79.0539C222.342 78.7273 221.036 78.5639 219.589 78.5639H210.489L205.029 99.3539H209.439C210.699 99.3539 211.772 99.2373 212.659 99.0039C213.546 98.7706 214.339 98.3739 215.039 97.8139C215.786 97.2073 216.462 96.3906 217.069 95.3639C217.722 94.3373 218.422 93.0073 219.169 91.3739H221.759L217.559 112.094H214.759C214.899 110.694 214.969 109.481 214.969 108.454C214.969 106.354 214.572 104.837 213.779 103.904C212.986 102.924 211.516 102.434 209.369 102.434H204.119L200.129 117.484C199.709 119.024 199.499 120.331 199.499 121.404C199.499 123.084 200.246 124.344 201.739 125.184C203.232 125.977 205.799 126.374 209.439 126.374C212.099 126.374 214.409 126.164 216.369 125.744C218.376 125.324 220.102 124.671 221.549 123.784C223.042 122.851 224.326 121.637 225.399 120.144C226.519 118.651 227.569 116.807 228.549 114.614H231.839L226.379 129.384H182.769L183.539 126.584Z" fill="#FAB837"/>
<path d="M256.215 114.894C255.749 116.527 255.375 117.974 255.095 119.234C254.862 120.494 254.745 121.427 254.745 122.034C254.745 124.834 257.405 126.234 262.725 126.234L261.955 129.384H238.715L239.485 126.584C241.725 126.584 243.545 125.931 244.945 124.624C246.345 123.271 247.442 121.147 248.235 118.254L256.495 87.3839C257.102 85.1439 257.405 83.3939 257.405 82.1339C257.405 81.4339 257.289 80.8506 257.055 80.3839C256.822 79.9173 256.425 79.5439 255.865 79.2639C255.305 78.9373 254.559 78.7039 253.625 78.5639C252.692 78.4239 251.525 78.3306 250.125 78.2839L250.895 75.4839H270.355C275.955 75.4839 280.365 76.5573 283.585 78.7039C286.805 80.8039 288.415 83.7439 288.415 87.5239C288.415 89.4373 288.042 91.1873 287.295 92.7739C286.595 94.3606 285.569 95.7839 284.215 97.0439C282.862 98.3039 281.229 99.3773 279.315 100.264C277.449 101.151 275.372 101.827 273.085 102.294L278.265 115.104C279.245 117.484 280.109 119.421 280.855 120.914C281.649 122.407 282.465 123.574 283.305 124.414C284.145 125.254 285.079 125.837 286.105 126.164C287.179 126.444 288.485 126.584 290.025 126.584L289.255 129.384H275.955L265.665 103.134H259.505L256.215 114.894ZM260.415 99.5639H263.845C266.272 99.5639 268.512 99.2839 270.565 98.7239C272.665 98.1639 274.439 97.3706 275.885 96.3439C277.379 95.2706 278.545 93.9639 279.385 92.4239C280.225 90.8839 280.645 89.1106 280.645 87.1039C280.645 84.3039 279.782 82.2039 278.055 80.8039C276.329 79.3573 273.809 78.6339 270.495 78.6339C269.562 78.6339 268.769 78.7273 268.115 78.9139C267.509 79.0539 266.972 79.3339 266.505 79.7539C266.085 80.1739 265.712 80.7573 265.385 81.5039C265.059 82.2039 264.755 83.1139 264.475 84.2339L260.415 99.5639Z" fill="white"/>
<path d="M256.215 114.894C255.749 116.527 255.375 117.974 255.095 119.234C254.862 120.494 254.745 121.427 254.745 122.034C254.745 124.834 257.405 126.234 262.725 126.234L261.955 129.384H238.715L239.485 126.584C241.725 126.584 243.545 125.931 244.945 124.624C246.345 123.271 247.442 121.147 248.235 118.254L256.495 87.3839C257.102 85.1439 257.405 83.3939 257.405 82.1339C257.405 81.4339 257.289 80.8506 257.055 80.3839C256.822 79.9173 256.425 79.5439 255.865 79.2639C255.305 78.9373 254.559 78.7039 253.625 78.5639C252.692 78.4239 251.525 78.3306 250.125 78.2839L250.895 75.4839H270.355C275.955 75.4839 280.365 76.5573 283.585 78.7039C286.805 80.8039 288.415 83.7439 288.415 87.5239C288.415 89.4373 288.042 91.1873 287.295 92.7739C286.595 94.3606 285.569 95.7839 284.215 97.0439C282.862 98.3039 281.229 99.3773 279.315 100.264C277.449 101.151 275.372 101.827 273.085 102.294L278.265 115.104C279.245 117.484 280.109 119.421 280.855 120.914C281.649 122.407 282.465 123.574 283.305 124.414C284.145 125.254 285.079 125.837 286.105 126.164C287.179 126.444 288.485 126.584 290.025 126.584L289.255 129.384H275.955L265.665 103.134H259.505L256.215 114.894ZM260.415 99.5639H263.845C266.272 99.5639 268.512 99.2839 270.565 98.7239C272.665 98.1639 274.439 97.3706 275.885 96.3439C277.379 95.2706 278.545 93.9639 279.385 92.4239C280.225 90.8839 280.645 89.1106 280.645 87.1039C280.645 84.3039 279.782 82.2039 278.055 80.8039C276.329 79.3573 273.809 78.6339 270.495 78.6339C269.562 78.6339 268.769 78.7273 268.115 78.9139C267.509 79.0539 266.972 79.3339 266.505 79.7539C266.085 80.1739 265.712 80.7573 265.385 81.5039C265.059 82.2039 264.755 83.1139 264.475 84.2339L260.415 99.5639Z" fill="#FAB837"/>
<path d="M335.854 76.5339H337.954L335.014 90.3239H332.634C332.494 86.0773 331.724 83.0206 330.324 81.1539C328.924 79.2873 326.731 78.3539 323.744 78.3539C322.297 78.3539 320.967 78.5639 319.754 78.9839C318.541 79.3573 317.491 79.9173 316.604 80.6639C315.764 81.4106 315.087 82.2973 314.574 83.3239C314.107 84.3039 313.874 85.3773 313.874 86.5439C313.874 88.2239 314.341 89.7173 315.274 91.0239C316.207 92.3306 317.374 93.5673 318.774 94.7339C320.221 95.8539 321.761 96.9973 323.394 98.1639C325.074 99.3306 326.614 100.614 328.014 102.014C329.461 103.414 330.651 105.001 331.584 106.774C332.517 108.547 332.984 110.624 332.984 113.004C332.984 115.384 332.517 117.624 331.584 119.724C330.651 121.777 329.367 123.574 327.734 125.114C326.147 126.654 324.281 127.867 322.134 128.754C319.987 129.641 317.677 130.084 315.204 130.084C310.117 130.084 305.661 128.077 301.834 124.064L300.364 129.384H297.914L300.854 111.604H303.164C303.491 116.411 304.681 120.074 306.734 122.594C308.787 125.114 311.634 126.374 315.274 126.374C316.954 126.374 318.494 126.141 319.894 125.674C321.294 125.161 322.484 124.484 323.464 123.644C324.491 122.757 325.284 121.731 325.844 120.564C326.451 119.351 326.754 118.044 326.754 116.644C326.754 114.684 326.264 112.957 325.284 111.464C324.304 109.971 323.091 108.571 321.644 107.264C320.197 105.957 318.611 104.697 316.884 103.484C315.157 102.271 313.571 100.987 312.124 99.6339C310.677 98.2339 309.464 96.7173 308.484 95.0839C307.504 93.4039 307.014 91.4906 307.014 89.3439C307.014 87.3373 307.434 85.4473 308.274 83.6739C309.161 81.9006 310.351 80.3606 311.844 79.0539C313.337 77.7473 315.087 76.7206 317.094 75.9739C319.101 75.1806 321.247 74.7839 323.534 74.7839C325.727 74.7839 327.687 75.1573 329.414 75.9039C331.141 76.6506 332.821 77.8406 334.454 79.4739L335.854 76.5339Z" fill="white"/>
<path d="M335.854 76.5339H337.954L335.014 90.3239H332.634C332.494 86.0773 331.724 83.0206 330.324 81.1539C328.924 79.2873 326.731 78.3539 323.744 78.3539C322.297 78.3539 320.967 78.5639 319.754 78.9839C318.541 79.3573 317.491 79.9173 316.604 80.6639C315.764 81.4106 315.087 82.2973 314.574 83.3239C314.107 84.3039 313.874 85.3773 313.874 86.5439C313.874 88.2239 314.341 89.7173 315.274 91.0239C316.207 92.3306 317.374 93.5673 318.774 94.7339C320.221 95.8539 321.761 96.9973 323.394 98.1639C325.074 99.3306 326.614 100.614 328.014 102.014C329.461 103.414 330.651 105.001 331.584 106.774C332.517 108.547 332.984 110.624 332.984 113.004C332.984 115.384 332.517 117.624 331.584 119.724C330.651 121.777 329.367 123.574 327.734 125.114C326.147 126.654 324.281 127.867 322.134 128.754C319.987 129.641 317.677 130.084 315.204 130.084C310.117 130.084 305.661 128.077 301.834 124.064L300.364 129.384H297.914L300.854 111.604H303.164C303.491 116.411 304.681 120.074 306.734 122.594C308.787 125.114 311.634 126.374 315.274 126.374C316.954 126.374 318.494 126.141 319.894 125.674C321.294 125.161 322.484 124.484 323.464 123.644C324.491 122.757 325.284 121.731 325.844 120.564C326.451 119.351 326.754 118.044 326.754 116.644C326.754 114.684 326.264 112.957 325.284 111.464C324.304 109.971 323.091 108.571 321.644 107.264C320.197 105.957 318.611 104.697 316.884 103.484C315.157 102.271 313.571 100.987 312.124 99.6339C310.677 98.2339 309.464 96.7173 308.484 95.0839C307.504 93.4039 307.014 91.4906 307.014 89.3439C307.014 87.3373 307.434 85.4473 308.274 83.6739C309.161 81.9006 310.351 80.3606 311.844 79.0539C313.337 77.7473 315.087 76.7206 317.094 75.9739C319.101 75.1806 321.247 74.7839 323.534 74.7839C325.727 74.7839 327.687 75.1573 329.414 75.9039C331.141 76.6506 332.821 77.8406 334.454 79.4739L335.854 76.5339Z" fill="#FAB837"/>
<path d="M357.81 117.624C357.25 119.677 356.97 121.311 356.97 122.524C356.97 124.111 357.46 125.184 358.44 125.744C359.467 126.304 361.1 126.584 363.34 126.584L362.5 129.384H340.17L340.94 126.584C342.34 126.584 343.53 126.491 344.51 126.304C345.49 126.071 346.33 125.651 347.03 125.044C347.777 124.437 348.407 123.597 348.92 122.524C349.433 121.451 349.923 120.051 350.39 118.324L358.58 87.3839C359.28 84.8173 359.63 82.9039 359.63 81.6439C359.63 80.1973 359.093 79.2873 358.02 78.9139C356.993 78.4939 355.22 78.2839 352.7 78.2839L353.47 75.4839H376.22L375.45 78.2839C373.91 78.2839 372.627 78.4473 371.6 78.7739C370.573 79.0539 369.687 79.6139 368.94 80.4539C368.193 81.2939 367.517 82.4606 366.91 83.9539C366.35 85.4473 365.767 87.3839 365.16 89.7639L357.81 117.624Z" fill="white"/>
<path d="M357.81 117.624C357.25 119.677 356.97 121.311 356.97 122.524C356.97 124.111 357.46 125.184 358.44 125.744C359.467 126.304 361.1 126.584 363.34 126.584L362.5 129.384H340.17L340.94 126.584C342.34 126.584 343.53 126.491 344.51 126.304C345.49 126.071 346.33 125.651 347.03 125.044C347.777 124.437 348.407 123.597 348.92 122.524C349.433 121.451 349.923 120.051 350.39 118.324L358.58 87.3839C359.28 84.8173 359.63 82.9039 359.63 81.6439C359.63 80.1973 359.093 79.2873 358.02 78.9139C356.993 78.4939 355.22 78.2839 352.7 78.2839L353.47 75.4839H376.22L375.45 78.2839C373.91 78.2839 372.627 78.4473 371.6 78.7739C370.573 79.0539 369.687 79.6139 368.94 80.4539C368.193 81.2939 367.517 82.4606 366.91 83.9539C366.35 85.4473 365.767 87.3839 365.16 89.7639L357.81 117.624Z" fill="#FAB837"/>
<path d="M409.554 74.7839C412.541 74.7839 415.224 75.2973 417.604 76.3239C420.031 77.3506 422.084 78.8206 423.764 80.7339C425.491 82.6006 426.797 84.8873 427.684 87.5939C428.617 90.2539 429.084 93.2406 429.084 96.5539C429.084 101.034 428.267 105.304 426.634 109.364C425.047 113.424 422.877 116.994 420.124 120.074C417.371 123.154 414.174 125.604 410.534 127.424C406.941 129.197 403.137 130.084 399.124 130.084C396.137 130.084 393.431 129.571 391.004 128.544C388.577 127.471 386.501 125.977 384.774 124.064C383.047 122.151 381.717 119.864 380.784 117.204C379.851 114.497 379.384 111.487 379.384 108.174C379.384 103.694 380.201 99.4473 381.834 95.4339C383.467 91.3739 385.661 87.8273 388.414 84.7939C391.167 81.7139 394.364 79.2873 398.004 77.5139C401.691 75.6939 405.541 74.7839 409.554 74.7839ZM409.554 78.4239C406.521 78.4239 403.674 79.1939 401.014 80.7339C398.401 82.2739 396.114 84.3973 394.154 87.1039C392.194 89.8106 390.654 92.9839 389.534 96.6239C388.414 100.264 387.854 104.184 387.854 108.384C387.854 114.357 388.881 118.837 390.934 121.824C393.034 124.811 396.091 126.304 400.104 126.304C403.044 126.304 405.751 125.511 408.224 123.924C410.744 122.337 412.914 120.144 414.734 117.344C416.601 114.544 418.047 111.207 419.074 107.334C420.101 103.461 420.614 99.2373 420.614 94.6639C420.614 89.0639 419.704 84.9573 417.884 82.3439C416.111 79.7306 413.334 78.4239 409.554 78.4239Z" fill="white"/>
<path d="M409.554 74.7839C412.541 74.7839 415.224 75.2973 417.604 76.3239C420.031 77.3506 422.084 78.8206 423.764 80.7339C425.491 82.6006 426.797 84.8873 427.684 87.5939C428.617 90.2539 429.084 93.2406 429.084 96.5539C429.084 101.034 428.267 105.304 426.634 109.364C425.047 113.424 422.877 116.994 420.124 120.074C417.371 123.154 414.174 125.604 410.534 127.424C406.941 129.197 403.137 130.084 399.124 130.084C396.137 130.084 393.431 129.571 391.004 128.544C388.577 127.471 386.501 125.977 384.774 124.064C383.047 122.151 381.717 119.864 380.784 117.204C379.851 114.497 379.384 111.487 379.384 108.174C379.384 103.694 380.201 99.4473 381.834 95.4339C383.467 91.3739 385.661 87.8273 388.414 84.7939C391.167 81.7139 394.364 79.2873 398.004 77.5139C401.691 75.6939 405.541 74.7839 409.554 74.7839ZM409.554 78.4239C406.521 78.4239 403.674 79.1939 401.014 80.7339C398.401 82.2739 396.114 84.3973 394.154 87.1039C392.194 89.8106 390.654 92.9839 389.534 96.6239C388.414 100.264 387.854 104.184 387.854 108.384C387.854 114.357 388.881 118.837 390.934 121.824C393.034 124.811 396.091 126.304 400.104 126.304C403.044 126.304 405.751 125.511 408.224 123.924C410.744 122.337 412.914 120.144 414.734 117.344C416.601 114.544 418.047 111.207 419.074 107.334C420.101 103.461 420.614 99.2373 420.614 94.6639C420.614 89.0639 419.704 84.9573 417.884 82.3439C416.111 79.7306 413.334 78.4239 409.554 78.4239Z" fill="#FAB837"/>
<path d="M474.837 129.384L456.497 87.2439H456.217L448.237 117.624C447.957 118.744 447.817 119.747 447.817 120.634C447.817 122.594 448.401 124.064 449.567 125.044C450.734 126.024 452.367 126.537 454.467 126.584L453.627 129.384H433.607L434.377 126.584C436.571 126.584 438.531 125.814 440.257 124.274C441.984 122.687 443.174 120.704 443.827 118.324L452.087 87.2439C452.274 86.5439 452.367 85.8206 452.367 85.0739C452.367 82.8339 451.411 81.1539 449.497 80.0339C447.631 78.9139 445.157 78.3306 442.077 78.2839L442.917 75.4839H459.367L476.867 115.594H477.147L484.567 87.2439C484.801 86.2173 484.917 85.3539 484.917 84.6539C484.917 82.6473 484.334 81.1073 483.167 80.0339C482.047 78.9139 480.671 78.3306 479.037 78.2839L479.877 75.4839H497.797L497.027 78.2839C496.141 78.2839 495.277 78.4939 494.437 78.9139C493.597 79.3339 492.827 79.9173 492.127 80.6639C491.427 81.3639 490.797 82.2273 490.237 83.2539C489.724 84.2806 489.304 85.3773 488.977 86.5439L477.637 129.384H474.837Z" fill="white"/>
<path d="M474.837 129.384L456.497 87.2439H456.217L448.237 117.624C447.957 118.744 447.817 119.747 447.817 120.634C447.817 122.594 448.401 124.064 449.567 125.044C450.734 126.024 452.367 126.537 454.467 126.584L453.627 129.384H433.607L434.377 126.584C436.571 126.584 438.531 125.814 440.257 124.274C441.984 122.687 443.174 120.704 443.827 118.324L452.087 87.2439C452.274 86.5439 452.367 85.8206 452.367 85.0739C452.367 82.8339 451.411 81.1539 449.497 80.0339C447.631 78.9139 445.157 78.3306 442.077 78.2839L442.917 75.4839H459.367L476.867 115.594H477.147L484.567 87.2439C484.801 86.2173 484.917 85.3539 484.917 84.6539C484.917 82.6473 484.334 81.1073 483.167 80.0339C482.047 78.9139 480.671 78.3306 479.037 78.2839L479.877 75.4839H497.797L497.027 78.2839C496.141 78.2839 495.277 78.4939 494.437 78.9139C493.597 79.3339 492.827 79.9173 492.127 80.6639C491.427 81.3639 490.797 82.2273 490.237 83.2539C489.724 84.2806 489.304 85.3773 488.977 86.5439L477.637 129.384H474.837Z" fill="#FAB837"/>
<path d="M545.447 74.7839L551.19 92.2459M545.447 74.7839L539.704 92.2459M545.447 74.7839V102.434M551.19 92.2459L559.272 88.6089M551.19 92.2459L545.447 102.434M539.704 92.2459L531.622 88.6089M539.704 92.2459L545.447 102.434M531.622 88.6089L535.259 96.691M531.622 88.6089L545.447 102.434M535.259 96.691L517.797 102.434M535.259 96.691L545.447 102.434M517.797 102.434L535.259 108.177M517.797 102.434H545.447M535.259 108.177L531.622 116.259M535.259 108.177L545.447 102.434M531.622 116.259L539.704 112.622M531.622 116.259L545.447 102.434M539.704 112.622L545.447 130.084M539.704 112.622L545.447 102.434M545.447 130.084L551.19 112.622M545.447 130.084V102.434M551.19 112.622L559.272 116.259M551.19 112.622L545.447 102.434M559.272 116.259L555.635 108.177M559.272 116.259L545.447 102.434M555.635 108.177L573.097 102.434M555.635 108.177L545.447 102.434M573.097 102.434L555.635 96.691M573.097 102.434H545.447M555.635 96.691L559.272 88.6089M555.635 96.691L545.447 102.434M559.272 88.6089L545.447 102.434" stroke="#FAB837"/>
</svg>
