<svg width="902" height="203" viewBox="0 0 902 203" fill="none" xmlns="http://www.w3.org/2000/svg">
<path d="M20.96 53V3.464H4.16V0.199997H41.28V3.464H24.448V53H20.96ZM54.3975 53V0.199997H57.8855V25H88.9575V0.199997H92.4775V53H88.9575V28.072H57.8855V53H54.3975ZM110.335 53V0.199997H136.255V3.304H113.823V25H135.487V28.072H113.823V49.896H136.255V53H110.335ZM167.405 53V3.656H163.117V0.199997H170.893V53H167.405ZM186.668 35.912V33H207.276V35.912H186.668ZM223.398 53V0.199997H234.63C238.384 0.199997 241.872 0.871997 245.094 2.216C248.336 3.56 251.163 5.43733 253.574 7.848C255.984 10.2373 257.862 13.032 259.206 16.232C260.571 19.432 261.254 22.888 261.254 26.6C261.254 30.3333 260.582 33.8 259.238 37C257.894 40.2 256.006 43.0053 253.574 45.416C251.163 47.8053 248.336 49.672 245.094 51.016C241.872 52.3387 238.384 53 234.63 53H223.398ZM226.886 49.864H234.406C237.67 49.864 240.71 49.2773 243.526 48.104C246.342 46.9093 248.806 45.256 250.918 43.144C253.03 41.032 254.672 38.568 255.846 35.752C257.04 32.936 257.638 29.8853 257.638 26.6C257.638 23.3147 257.051 20.264 255.878 17.448C254.704 14.632 253.051 12.168 250.918 10.056C248.806 7.944 246.342 6.30133 243.526 5.128C240.71 3.93333 237.67 3.336 234.406 3.336H226.886V49.864ZM271.223 53L291.895 0.199997H295.159L315.831 53H312.055L305.143 34.984H281.943L274.999 53H271.223ZM283.127 31.88H303.958L293.527 4.744L283.127 31.88ZM336.042 53V30.28L318.122 0.199997H322.346L337.77 26.44L353.226 0.199997H357.45L339.53 30.28V53H336.042Z" fill="white"/>
<path d="M20.96 53V3.464H4.16V0.199997H41.28V3.464H24.448V53H20.96ZM54.3975 53V0.199997H57.8855V25H88.9575V0.199997H92.4775V53H88.9575V28.072H57.8855V53H54.3975ZM110.335 53V0.199997H136.255V3.304H113.823V25H135.487V28.072H113.823V49.896H136.255V53H110.335ZM167.405 53V3.656H163.117V0.199997H170.893V53H167.405ZM186.668 35.912V33H207.276V35.912H186.668ZM223.398 53V0.199997H234.63C238.384 0.199997 241.872 0.871997 245.094 2.216C248.336 3.56 251.163 5.43733 253.574 7.848C255.984 10.2373 257.862 13.032 259.206 16.232C260.571 19.432 261.254 22.888 261.254 26.6C261.254 30.3333 260.582 33.8 259.238 37C257.894 40.2 256.006 43.0053 253.574 45.416C251.163 47.8053 248.336 49.672 245.094 51.016C241.872 52.3387 238.384 53 234.63 53H223.398ZM226.886 49.864H234.406C237.67 49.864 240.71 49.2773 243.526 48.104C246.342 46.9093 248.806 45.256 250.918 43.144C253.03 41.032 254.672 38.568 255.846 35.752C257.04 32.936 257.638 29.8853 257.638 26.6C257.638 23.3147 257.051 20.264 255.878 17.448C254.704 14.632 253.051 12.168 250.918 10.056C248.806 7.944 246.342 6.30133 243.526 5.128C240.71 3.93333 237.67 3.336 234.406 3.336H226.886V49.864ZM271.223 53L291.895 0.199997H295.159L315.831 53H312.055L305.143 34.984H281.943L274.999 53H271.223ZM283.127 31.88H303.958L293.527 4.744L283.127 31.88ZM336.042 53V30.28L318.122 0.199997H322.346L337.77 26.44L353.226 0.199997H357.45L339.53 30.28V53H336.042Z" fill="#FAB837"/>
<g clip-path="url(#clip0_347_528)">
<mask id="path-2-inside-1_347_528" fill="white">
<path d="M0 73H900V126H0V73Z"/>
</mask>
<path d="M7.712 126V73.2H24.16C27.5947 73.2 30.6133 73.7973 33.216 74.992C35.84 76.1867 37.888 77.936 39.36 80.24C40.832 82.544 41.568 85.392 41.568 88.784C41.568 92.1333 40.832 95.024 39.36 97.456C37.888 99.8667 35.84 101.733 33.216 103.056C30.6133 104.357 27.5947 105.008 24.16 105.008H16.096V126H7.712ZM16.096 98.224H21.696C23.808 98.224 25.696 97.8827 27.36 97.2C29.0453 96.5173 30.3787 95.504 31.36 94.16C32.3413 92.7947 32.832 91.0773 32.832 89.008C32.832 86.9387 32.3413 85.232 31.36 83.888C30.3787 82.544 29.0453 81.552 27.36 80.912C25.696 80.2507 23.808 79.92 21.696 79.92H16.096V98.224ZM75.438 127.024C71.7473 127.024 68.2913 126.32 65.07 124.912C61.8487 123.504 59.022 121.552 56.59 119.056C54.158 116.539 52.2487 113.627 50.862 110.32C49.4967 106.992 48.814 103.429 48.814 99.632C48.814 95.8133 49.4967 92.2507 50.862 88.944C52.2487 85.6373 54.158 82.736 56.59 80.24C59.022 77.7227 61.8487 75.76 65.07 74.352C68.2913 72.944 71.7473 72.24 75.438 72.24C79.1287 72.24 82.5847 72.944 85.806 74.352C89.0273 75.76 91.854 77.7227 94.286 80.24C96.718 82.736 98.6167 85.6373 99.982 88.944C101.369 92.2507 102.062 95.8133 102.062 99.632C102.062 103.429 101.369 106.992 99.982 110.32C98.6167 113.627 96.718 116.539 94.286 119.056C91.854 121.552 89.0273 123.504 85.806 124.912C82.5847 126.32 79.1287 127.024 75.438 127.024ZM75.438 118.96C77.9553 118.96 80.2807 118.48 82.414 117.52C84.5687 116.539 86.4353 115.184 88.014 113.456C89.614 111.707 90.8513 109.659 91.726 107.312C92.6007 104.965 93.038 102.405 93.038 99.632C93.038 96.8587 92.6007 94.2987 91.726 91.952C90.8513 89.6053 89.614 87.568 88.014 85.84C86.4353 84.0907 84.5687 82.736 82.414 81.776C80.2807 80.7947 77.9553 80.304 75.438 80.304C72.942 80.304 70.6167 80.7947 68.462 81.776C66.3287 82.736 64.462 84.0907 62.862 85.84C61.2833 87.568 60.0567 89.6053 59.182 91.952C58.3073 94.2987 57.87 96.8587 57.87 99.632C57.87 102.405 58.3073 104.965 59.182 107.312C60.0567 109.659 61.2833 111.707 62.862 113.456C64.462 115.184 66.3287 116.539 68.462 117.52C70.6167 118.48 72.942 118.96 75.438 118.96ZM113.9 126V73.2H122.284V126H113.9ZM137.712 126V73.2H146.096L170.864 111.952V73.2H179.248V126H170.864L146.096 87.28V126H137.712ZM200.323 126V80.656H185.955V73.2H223.075V80.656H208.675V126H200.323ZM232.837 126V73.2H241.221V95.856H264.229V73.2H272.581V126H264.229V103.216H241.221V126H232.837ZM311.001 127.024C307.31 127.024 303.854 126.32 300.633 124.912C297.411 123.504 294.585 121.552 292.153 119.056C289.721 116.539 287.811 113.627 286.425 110.32C285.059 106.992 284.377 103.429 284.377 99.632C284.377 95.8133 285.059 92.2507 286.425 88.944C287.811 85.6373 289.721 82.736 292.153 80.24C294.585 77.7227 297.411 75.76 300.633 74.352C303.854 72.944 307.31 72.24 311.001 72.24C314.691 72.24 318.147 72.944 321.369 74.352C324.59 75.76 327.417 77.7227 329.849 80.24C332.281 82.736 334.179 85.6373 335.545 88.944C336.931 92.2507 337.625 95.8133 337.625 99.632C337.625 103.429 336.931 106.992 335.545 110.32C334.179 113.627 332.281 116.539 329.849 119.056C327.417 121.552 324.59 123.504 321.369 124.912C318.147 126.32 314.691 127.024 311.001 127.024ZM311.001 118.96C313.518 118.96 315.843 118.48 317.977 117.52C320.131 116.539 321.998 115.184 323.577 113.456C325.177 111.707 326.414 109.659 327.289 107.312C328.163 104.965 328.601 102.405 328.601 99.632C328.601 96.8587 328.163 94.2987 327.289 91.952C326.414 89.6053 325.177 87.568 323.577 85.84C321.998 84.0907 320.131 82.736 317.977 81.776C315.843 80.7947 313.518 80.304 311.001 80.304C308.505 80.304 306.179 80.7947 304.025 81.776C301.891 82.736 300.025 84.0907 298.425 85.84C296.846 87.568 295.619 89.6053 294.745 91.952C293.87 94.2987 293.433 96.8587 293.433 99.632C293.433 102.405 293.87 104.965 294.745 107.312C295.619 109.659 296.846 111.707 298.425 113.456C300.025 115.184 301.891 116.539 304.025 117.52C306.179 118.48 308.505 118.96 311.001 118.96ZM349.462 126V73.2H357.846V118.64H378.006V126H349.462ZM387.775 126V73.2H401.343C405.097 73.2 408.585 73.872 411.807 75.216C415.028 76.56 417.844 78.4373 420.255 80.848C422.687 83.2373 424.575 86.0427 425.919 89.264C427.284 92.464 427.967 95.92 427.967 99.632C427.967 103.344 427.295 106.8 425.951 110C424.607 113.2 422.719 116.005 420.287 118.416C417.876 120.805 415.049 122.672 411.807 124.016C408.585 125.339 405.097 126 401.343 126H387.775ZM396.159 118.48H400.447C403.092 118.48 405.535 118.011 407.775 117.072C410.036 116.133 411.999 114.811 413.663 113.104C415.348 111.397 416.649 109.403 417.567 107.12C418.505 104.816 418.975 102.309 418.975 99.6C418.975 96.912 418.505 94.416 417.567 92.112C416.649 89.808 415.348 87.8133 413.663 86.128C411.999 84.4213 410.036 83.0987 407.775 82.16C405.535 81.2 403.092 80.72 400.447 80.72H396.159V118.48ZM439.65 126V73.2H448.034V126H439.65ZM463.462 126V73.2H471.846L496.614 111.952V73.2H504.998V126H496.614L471.846 87.28V126H463.462ZM542.736 127.024C539.088 127.024 535.696 126.331 532.56 124.944C529.424 123.536 526.672 121.595 524.304 119.12C521.957 116.624 520.122 113.712 518.8 110.384C517.498 107.056 516.848 103.472 516.848 99.632C516.848 95.984 517.456 92.5173 518.672 89.232C519.888 85.9253 521.648 83.0027 523.952 80.464C526.256 77.9253 529.04 75.92 532.304 74.448C535.589 72.976 539.28 72.24 543.376 72.24C545.85 72.24 548.272 72.528 550.64 73.104C553.008 73.68 555.237 74.5013 557.328 75.568C559.44 76.6347 561.338 77.9253 563.024 79.44L558.992 85.904C557.072 83.984 554.725 82.48 551.952 81.392C549.178 80.2827 546.341 79.728 543.44 79.728C540.645 79.728 538.16 80.2293 535.984 81.232C533.808 82.2347 531.962 83.6427 530.448 85.456C528.954 87.248 527.813 89.328 527.024 91.696C526.256 94.0427 525.872 96.5707 525.872 99.28C525.872 102.203 526.309 104.891 527.184 107.344C528.058 109.776 529.274 111.899 530.832 113.712C532.41 115.504 534.245 116.891 536.336 117.872C538.426 118.832 540.677 119.312 543.088 119.312C545.05 119.312 546.949 118.992 548.784 118.352C550.618 117.712 552.261 116.795 553.712 115.6C555.162 114.405 556.314 112.987 557.168 111.344C558.021 109.701 558.448 107.888 558.448 105.904V104.752H542.576V98.192H566.992V105.008C566.992 108.421 566.309 111.483 564.944 114.192C563.578 116.901 561.733 119.216 559.408 121.136C557.104 123.035 554.512 124.496 551.632 125.52C548.752 126.523 545.786 127.024 542.736 127.024Z" fill="white"/>
<path d="M7.712 126V73.2H24.16C27.5947 73.2 30.6133 73.7973 33.216 74.992C35.84 76.1867 37.888 77.936 39.36 80.24C40.832 82.544 41.568 85.392 41.568 88.784C41.568 92.1333 40.832 95.024 39.36 97.456C37.888 99.8667 35.84 101.733 33.216 103.056C30.6133 104.357 27.5947 105.008 24.16 105.008H16.096V126H7.712ZM16.096 98.224H21.696C23.808 98.224 25.696 97.8827 27.36 97.2C29.0453 96.5173 30.3787 95.504 31.36 94.16C32.3413 92.7947 32.832 91.0773 32.832 89.008C32.832 86.9387 32.3413 85.232 31.36 83.888C30.3787 82.544 29.0453 81.552 27.36 80.912C25.696 80.2507 23.808 79.92 21.696 79.92H16.096V98.224ZM75.438 127.024C71.7473 127.024 68.2913 126.32 65.07 124.912C61.8487 123.504 59.022 121.552 56.59 119.056C54.158 116.539 52.2487 113.627 50.862 110.32C49.4967 106.992 48.814 103.429 48.814 99.632C48.814 95.8133 49.4967 92.2507 50.862 88.944C52.2487 85.6373 54.158 82.736 56.59 80.24C59.022 77.7227 61.8487 75.76 65.07 74.352C68.2913 72.944 71.7473 72.24 75.438 72.24C79.1287 72.24 82.5847 72.944 85.806 74.352C89.0273 75.76 91.854 77.7227 94.286 80.24C96.718 82.736 98.6167 85.6373 99.982 88.944C101.369 92.2507 102.062 95.8133 102.062 99.632C102.062 103.429 101.369 106.992 99.982 110.32C98.6167 113.627 96.718 116.539 94.286 119.056C91.854 121.552 89.0273 123.504 85.806 124.912C82.5847 126.32 79.1287 127.024 75.438 127.024ZM75.438 118.96C77.9553 118.96 80.2807 118.48 82.414 117.52C84.5687 116.539 86.4353 115.184 88.014 113.456C89.614 111.707 90.8513 109.659 91.726 107.312C92.6007 104.965 93.038 102.405 93.038 99.632C93.038 96.8587 92.6007 94.2987 91.726 91.952C90.8513 89.6053 89.614 87.568 88.014 85.84C86.4353 84.0907 84.5687 82.736 82.414 81.776C80.2807 80.7947 77.9553 80.304 75.438 80.304C72.942 80.304 70.6167 80.7947 68.462 81.776C66.3287 82.736 64.462 84.0907 62.862 85.84C61.2833 87.568 60.0567 89.6053 59.182 91.952C58.3073 94.2987 57.87 96.8587 57.87 99.632C57.87 102.405 58.3073 104.965 59.182 107.312C60.0567 109.659 61.2833 111.707 62.862 113.456C64.462 115.184 66.3287 116.539 68.462 117.52C70.6167 118.48 72.942 118.96 75.438 118.96ZM113.9 126V73.2H122.284V126H113.9ZM137.712 126V73.2H146.096L170.864 111.952V73.2H179.248V126H170.864L146.096 87.28V126H137.712ZM200.323 126V80.656H185.955V73.2H223.075V80.656H208.675V126H200.323ZM232.837 126V73.2H241.221V95.856H264.229V73.2H272.581V126H264.229V103.216H241.221V126H232.837ZM311.001 127.024C307.31 127.024 303.854 126.32 300.633 124.912C297.411 123.504 294.585 121.552 292.153 119.056C289.721 116.539 287.811 113.627 286.425 110.32C285.059 106.992 284.377 103.429 284.377 99.632C284.377 95.8133 285.059 92.2507 286.425 88.944C287.811 85.6373 289.721 82.736 292.153 80.24C294.585 77.7227 297.411 75.76 300.633 74.352C303.854 72.944 307.31 72.24 311.001 72.24C314.691 72.24 318.147 72.944 321.369 74.352C324.59 75.76 327.417 77.7227 329.849 80.24C332.281 82.736 334.179 85.6373 335.545 88.944C336.931 92.2507 337.625 95.8133 337.625 99.632C337.625 103.429 336.931 106.992 335.545 110.32C334.179 113.627 332.281 116.539 329.849 119.056C327.417 121.552 324.59 123.504 321.369 124.912C318.147 126.32 314.691 127.024 311.001 127.024ZM311.001 118.96C313.518 118.96 315.843 118.48 317.977 117.52C320.131 116.539 321.998 115.184 323.577 113.456C325.177 111.707 326.414 109.659 327.289 107.312C328.163 104.965 328.601 102.405 328.601 99.632C328.601 96.8587 328.163 94.2987 327.289 91.952C326.414 89.6053 325.177 87.568 323.577 85.84C321.998 84.0907 320.131 82.736 317.977 81.776C315.843 80.7947 313.518 80.304 311.001 80.304C308.505 80.304 306.179 80.7947 304.025 81.776C301.891 82.736 300.025 84.0907 298.425 85.84C296.846 87.568 295.619 89.6053 294.745 91.952C293.87 94.2987 293.433 96.8587 293.433 99.632C293.433 102.405 293.87 104.965 294.745 107.312C295.619 109.659 296.846 111.707 298.425 113.456C300.025 115.184 301.891 116.539 304.025 117.52C306.179 118.48 308.505 118.96 311.001 118.96ZM349.462 126V73.2H357.846V118.64H378.006V126H349.462ZM387.775 126V73.2H401.343C405.097 73.2 408.585 73.872 411.807 75.216C415.028 76.56 417.844 78.4373 420.255 80.848C422.687 83.2373 424.575 86.0427 425.919 89.264C427.284 92.464 427.967 95.92 427.967 99.632C427.967 103.344 427.295 106.8 425.951 110C424.607 113.2 422.719 116.005 420.287 118.416C417.876 120.805 415.049 122.672 411.807 124.016C408.585 125.339 405.097 126 401.343 126H387.775ZM396.159 118.48H400.447C403.092 118.48 405.535 118.011 407.775 117.072C410.036 116.133 411.999 114.811 413.663 113.104C415.348 111.397 416.649 109.403 417.567 107.12C418.505 104.816 418.975 102.309 418.975 99.6C418.975 96.912 418.505 94.416 417.567 92.112C416.649 89.808 415.348 87.8133 413.663 86.128C411.999 84.4213 410.036 83.0987 407.775 82.16C405.535 81.2 403.092 80.72 400.447 80.72H396.159V118.48ZM439.65 126V73.2H448.034V126H439.65ZM463.462 126V73.2H471.846L496.614 111.952V73.2H504.998V126H496.614L471.846 87.28V126H463.462ZM542.736 127.024C539.088 127.024 535.696 126.331 532.56 124.944C529.424 123.536 526.672 121.595 524.304 119.12C521.957 116.624 520.122 113.712 518.8 110.384C517.498 107.056 516.848 103.472 516.848 99.632C516.848 95.984 517.456 92.5173 518.672 89.232C519.888 85.9253 521.648 83.0027 523.952 80.464C526.256 77.9253 529.04 75.92 532.304 74.448C535.589 72.976 539.28 72.24 543.376 72.24C545.85 72.24 548.272 72.528 550.64 73.104C553.008 73.68 555.237 74.5013 557.328 75.568C559.44 76.6347 561.338 77.9253 563.024 79.44L558.992 85.904C557.072 83.984 554.725 82.48 551.952 81.392C549.178 80.2827 546.341 79.728 543.44 79.728C540.645 79.728 538.16 80.2293 535.984 81.232C533.808 82.2347 531.962 83.6427 530.448 85.456C528.954 87.248 527.813 89.328 527.024 91.696C526.256 94.0427 525.872 96.5707 525.872 99.28C525.872 102.203 526.309 104.891 527.184 107.344C528.058 109.776 529.274 111.899 530.832 113.712C532.41 115.504 534.245 116.891 536.336 117.872C538.426 118.832 540.677 119.312 543.088 119.312C545.05 119.312 546.949 118.992 548.784 118.352C550.618 117.712 552.261 116.795 553.712 115.6C555.162 114.405 556.314 112.987 557.168 111.344C558.021 109.701 558.448 107.888 558.448 105.904V104.752H542.576V98.192H566.992V105.008C566.992 108.421 566.309 111.483 564.944 114.192C563.578 116.901 561.733 119.216 559.408 121.136C557.104 123.035 554.512 124.496 551.632 125.52C548.752 126.523 545.786 127.024 542.736 127.024Z" fill="#FAB837"/>
</g>
<path d="M900 124H0V128H900V124Z" fill="#FAB837" mask="url(#path-2-inside-1_347_528)"/>
<path d="M348.68 188.74C348.12 190.793 347.84 192.427 347.84 193.64C347.84 195.227 348.33 196.3 349.31 196.86C350.337 197.42 351.97 197.7 354.21 197.7L353.37 200.5H331.04L331.81 197.7C333.21 197.7 334.4 197.607 335.38 197.42C336.36 197.187 337.2 196.767 337.9 196.16C338.647 195.553 339.277 194.713 339.79 193.64C340.303 192.567 340.793 191.167 341.26 189.44L349.45 158.5C350.15 155.933 350.5 154.02 350.5 152.76C350.5 151.313 349.963 150.403 348.89 150.03C347.863 149.61 346.09 149.4 343.57 149.4L344.34 146.6H367.09L366.32 149.4C364.78 149.4 363.497 149.563 362.47 149.89C361.443 150.17 360.557 150.73 359.81 151.57C359.063 152.41 358.387 153.577 357.78 155.07C357.22 156.563 356.637 158.5 356.03 160.88L348.68 188.74ZM425.045 154.65L396.345 200.5H393.335L387.875 154.65H387.595L378.635 188.74C378.495 189.3 378.378 189.837 378.285 190.35C378.191 190.863 378.145 191.353 378.145 191.82C378.145 193.78 378.681 195.25 379.755 196.23C380.875 197.163 382.345 197.653 384.165 197.7L383.325 200.5H364.005L364.775 197.7C366.968 197.7 368.928 196.93 370.655 195.39C372.381 193.803 373.571 191.82 374.225 189.44L382.415 158.5C383.115 155.933 383.465 154.02 383.465 152.76C383.465 151.313 382.928 150.403 381.855 150.03C380.828 149.61 379.055 149.4 376.535 149.4L377.305 146.6H394.105L399.075 188.32H399.355L425.745 146.6H440.515L439.745 149.4C438.391 149.4 437.295 149.563 436.455 149.89C435.615 150.17 434.868 150.73 434.215 151.57C433.608 152.41 433.048 153.577 432.535 155.07C432.021 156.563 431.461 158.5 430.855 160.88L423.505 188.74C422.945 190.793 422.665 192.427 422.665 193.64C422.665 195.227 423.201 196.3 424.275 196.86C425.395 197.42 427.215 197.7 429.735 197.7L428.895 200.5H406.565L407.335 197.7C408.595 197.7 409.668 197.607 410.555 197.42C411.441 197.187 412.211 196.767 412.865 196.16C413.565 195.553 414.148 194.713 414.615 193.64C415.128 192.567 415.618 191.167 416.085 189.44L425.325 154.65H425.045ZM499.912 154.65L471.212 200.5H468.202L462.742 154.65H462.462L453.502 188.74C453.362 189.3 453.245 189.837 453.152 190.35C453.058 190.863 453.012 191.353 453.012 191.82C453.012 193.78 453.548 195.25 454.622 196.23C455.742 197.163 457.212 197.653 459.032 197.7L458.192 200.5H438.872L439.642 197.7C441.835 197.7 443.795 196.93 445.522 195.39C447.248 193.803 448.438 191.82 449.092 189.44L457.282 158.5C457.982 155.933 458.332 154.02 458.332 152.76C458.332 151.313 457.795 150.403 456.722 150.03C455.695 149.61 453.922 149.4 451.402 149.4L452.172 146.6H468.972L473.942 188.32H474.222L500.612 146.6H515.382L514.612 149.4C513.258 149.4 512.162 149.563 511.322 149.89C510.482 150.17 509.735 150.73 509.082 151.57C508.475 152.41 507.915 153.577 507.402 155.07C506.888 156.563 506.328 158.5 505.722 160.88L498.372 188.74C497.812 190.793 497.532 192.427 497.532 193.64C497.532 195.227 498.068 196.3 499.142 196.86C500.262 197.42 502.082 197.7 504.602 197.7L503.762 200.5H481.432L482.202 197.7C483.462 197.7 484.535 197.607 485.422 197.42C486.308 197.187 487.078 196.767 487.732 196.16C488.432 195.553 489.015 194.713 489.482 193.64C489.995 192.567 490.485 191.167 490.952 189.44L500.192 154.65H499.912ZM514.579 197.7C516.119 197.7 517.379 197.583 518.359 197.35C519.386 197.117 520.226 196.697 520.879 196.09C521.579 195.437 522.162 194.597 522.629 193.57C523.096 192.497 523.539 191.12 523.959 189.44L532.079 158.57C532.406 157.357 532.639 156.307 532.779 155.42C532.966 154.533 533.059 153.763 533.059 153.11C533.059 151.57 532.522 150.567 531.449 150.1C530.376 149.633 528.579 149.4 526.059 149.4L526.829 146.6H565.049V160.74H562.389C561.782 158.5 561.106 156.68 560.359 155.28C559.612 153.833 558.749 152.713 557.769 151.92C556.836 151.08 555.762 150.497 554.549 150.17C553.382 149.843 552.076 149.68 550.629 149.68H541.529L536.069 170.47H540.479C541.739 170.47 542.812 170.353 543.699 170.12C544.586 169.887 545.379 169.49 546.079 168.93C546.826 168.323 547.502 167.507 548.109 166.48C548.762 165.453 549.462 164.123 550.209 162.49H552.799L548.599 183.21H545.799C545.939 181.81 546.009 180.597 546.009 179.57C546.009 177.47 545.612 175.953 544.819 175.02C544.026 174.04 542.556 173.55 540.409 173.55H535.159L531.169 188.6C530.749 190.14 530.539 191.447 530.539 192.52C530.539 194.2 531.286 195.46 532.779 196.3C534.272 197.093 536.839 197.49 540.479 197.49C543.139 197.49 545.449 197.28 547.409 196.86C549.416 196.44 551.142 195.787 552.589 194.9C554.082 193.967 555.366 192.753 556.439 191.26C557.559 189.767 558.609 187.923 559.589 185.73H562.879L557.419 200.5H513.809L514.579 197.7ZM587.255 186.01C586.789 187.643 586.415 189.09 586.135 190.35C585.902 191.61 585.785 192.543 585.785 193.15C585.785 195.95 588.445 197.35 593.765 197.35L592.995 200.5H569.755L570.525 197.7C572.765 197.7 574.585 197.047 575.985 195.74C577.385 194.387 578.482 192.263 579.275 189.37L587.535 158.5C588.142 156.26 588.445 154.51 588.445 153.25C588.445 152.55 588.329 151.967 588.095 151.5C587.862 151.033 587.465 150.66 586.905 150.38C586.345 150.053 585.599 149.82 584.665 149.68C583.732 149.54 582.565 149.447 581.165 149.4L581.935 146.6H601.395C606.995 146.6 611.405 147.673 614.625 149.82C617.845 151.92 619.455 154.86 619.455 158.64C619.455 160.553 619.082 162.303 618.335 163.89C617.635 165.477 616.609 166.9 615.255 168.16C613.902 169.42 612.269 170.493 610.355 171.38C608.489 172.267 606.412 172.943 604.125 173.41L609.305 186.22C610.285 188.6 611.149 190.537 611.895 192.03C612.689 193.523 613.505 194.69 614.345 195.53C615.185 196.37 616.119 196.953 617.145 197.28C618.219 197.56 619.525 197.7 621.065 197.7L620.295 200.5H606.995L596.705 174.25H590.545L587.255 186.01ZM591.455 170.68H594.885C597.312 170.68 599.552 170.4 601.605 169.84C603.705 169.28 605.479 168.487 606.925 167.46C608.419 166.387 609.585 165.08 610.425 163.54C611.265 162 611.685 160.227 611.685 158.22C611.685 155.42 610.822 153.32 609.095 151.92C607.369 150.473 604.849 149.75 601.535 149.75C600.602 149.75 599.809 149.843 599.155 150.03C598.549 150.17 598.012 150.45 597.545 150.87C597.125 151.29 596.752 151.873 596.425 152.62C596.099 153.32 595.795 154.23 595.515 155.35L591.455 170.68ZM666.894 147.65H668.994L666.054 161.44H663.674C663.534 157.193 662.764 154.137 661.364 152.27C659.964 150.403 657.771 149.47 654.784 149.47C653.337 149.47 652.007 149.68 650.794 150.1C649.581 150.473 648.531 151.033 647.644 151.78C646.804 152.527 646.127 153.413 645.614 154.44C645.147 155.42 644.914 156.493 644.914 157.66C644.914 159.34 645.381 160.833 646.314 162.14C647.247 163.447 648.414 164.683 649.814 165.85C651.261 166.97 652.801 168.113 654.434 169.28C656.114 170.447 657.654 171.73 659.054 173.13C660.501 174.53 661.691 176.117 662.624 177.89C663.557 179.663 664.024 181.74 664.024 184.12C664.024 186.5 663.557 188.74 662.624 190.84C661.691 192.893 660.407 194.69 658.774 196.23C657.187 197.77 655.321 198.983 653.174 199.87C651.027 200.757 648.717 201.2 646.244 201.2C641.157 201.2 636.701 199.193 632.874 195.18L631.404 200.5H628.954L631.894 182.72H634.204C634.531 187.527 635.721 191.19 637.774 193.71C639.827 196.23 642.674 197.49 646.314 197.49C647.994 197.49 649.534 197.257 650.934 196.79C652.334 196.277 653.524 195.6 654.504 194.76C655.531 193.873 656.324 192.847 656.884 191.68C657.491 190.467 657.794 189.16 657.794 187.76C657.794 185.8 657.304 184.073 656.324 182.58C655.344 181.087 654.131 179.687 652.684 178.38C651.237 177.073 649.651 175.813 647.924 174.6C646.197 173.387 644.611 172.103 643.164 170.75C641.717 169.35 640.504 167.833 639.524 166.2C638.544 164.52 638.054 162.607 638.054 160.46C638.054 158.453 638.474 156.563 639.314 154.79C640.201 153.017 641.391 151.477 642.884 150.17C644.377 148.863 646.127 147.837 648.134 147.09C650.141 146.297 652.287 145.9 654.574 145.9C656.767 145.9 658.727 146.273 660.454 147.02C662.181 147.767 663.861 148.957 665.494 150.59L666.894 147.65ZM688.85 188.74C688.29 190.793 688.01 192.427 688.01 193.64C688.01 195.227 688.5 196.3 689.48 196.86C690.507 197.42 692.14 197.7 694.38 197.7L693.54 200.5H671.21L671.98 197.7C673.38 197.7 674.57 197.607 675.55 197.42C676.53 197.187 677.37 196.767 678.07 196.16C678.817 195.553 679.447 194.713 679.96 193.64C680.473 192.567 680.963 191.167 681.43 189.44L689.62 158.5C690.32 155.933 690.67 154.02 690.67 152.76C690.67 151.313 690.133 150.403 689.06 150.03C688.033 149.61 686.26 149.4 683.74 149.4L684.51 146.6H707.26L706.49 149.4C704.95 149.4 703.667 149.563 702.64 149.89C701.613 150.17 700.727 150.73 699.98 151.57C699.233 152.41 698.557 153.577 697.95 155.07C697.39 156.563 696.807 158.5 696.2 160.88L688.85 188.74ZM740.594 145.9C743.581 145.9 746.264 146.413 748.644 147.44C751.071 148.467 753.124 149.937 754.804 151.85C756.531 153.717 757.837 156.003 758.724 158.71C759.657 161.37 760.124 164.357 760.124 167.67C760.124 172.15 759.307 176.42 757.674 180.48C756.087 184.54 753.917 188.11 751.164 191.19C748.411 194.27 745.214 196.72 741.574 198.54C737.981 200.313 734.177 201.2 730.164 201.2C727.177 201.2 724.471 200.687 722.044 199.66C719.617 198.587 717.541 197.093 715.814 195.18C714.087 193.267 712.757 190.98 711.824 188.32C710.891 185.613 710.424 182.603 710.424 179.29C710.424 174.81 711.241 170.563 712.874 166.55C714.507 162.49 716.701 158.943 719.454 155.91C722.207 152.83 725.404 150.403 729.044 148.63C732.731 146.81 736.581 145.9 740.594 145.9ZM740.594 149.54C737.561 149.54 734.714 150.31 732.054 151.85C729.441 153.39 727.154 155.513 725.194 158.22C723.234 160.927 721.694 164.1 720.574 167.74C719.454 171.38 718.894 175.3 718.894 179.5C718.894 185.473 719.921 189.953 721.974 192.94C724.074 195.927 727.131 197.42 731.144 197.42C734.084 197.42 736.791 196.627 739.264 195.04C741.784 193.453 743.954 191.26 745.774 188.46C747.641 185.66 749.087 182.323 750.114 178.45C751.141 174.577 751.654 170.353 751.654 165.78C751.654 160.18 750.744 156.073 748.924 153.46C747.151 150.847 744.374 149.54 740.594 149.54ZM805.877 200.5L787.537 158.36H787.257L779.277 188.74C778.997 189.86 778.857 190.863 778.857 191.75C778.857 193.71 779.441 195.18 780.607 196.16C781.774 197.14 783.407 197.653 785.507 197.7L784.667 200.5H764.647L765.417 197.7C767.611 197.7 769.571 196.93 771.297 195.39C773.024 193.803 774.214 191.82 774.867 189.44L783.127 158.36C783.314 157.66 783.407 156.937 783.407 156.19C783.407 153.95 782.451 152.27 780.537 151.15C778.671 150.03 776.197 149.447 773.117 149.4L773.957 146.6H790.407L807.907 186.71H808.187L815.607 158.36C815.841 157.333 815.957 156.47 815.957 155.77C815.957 153.763 815.374 152.223 814.207 151.15C813.087 150.03 811.711 149.447 810.077 149.4L810.917 146.6H828.837L828.067 149.4C827.181 149.4 826.317 149.61 825.477 150.03C824.637 150.45 823.867 151.033 823.167 151.78C822.467 152.48 821.837 153.343 821.277 154.37C820.764 155.397 820.344 156.493 820.017 157.66L808.677 200.5H805.877Z" fill="white"/>
<path d="M348.68 188.74C348.12 190.793 347.84 192.427 347.84 193.64C347.84 195.227 348.33 196.3 349.31 196.86C350.337 197.42 351.97 197.7 354.21 197.7L353.37 200.5H331.04L331.81 197.7C333.21 197.7 334.4 197.607 335.38 197.42C336.36 197.187 337.2 196.767 337.9 196.16C338.647 195.553 339.277 194.713 339.79 193.64C340.303 192.567 340.793 191.167 341.26 189.44L349.45 158.5C350.15 155.933 350.5 154.02 350.5 152.76C350.5 151.313 349.963 150.403 348.89 150.03C347.863 149.61 346.09 149.4 343.57 149.4L344.34 146.6H367.09L366.32 149.4C364.78 149.4 363.497 149.563 362.47 149.89C361.443 150.17 360.557 150.73 359.81 151.57C359.063 152.41 358.387 153.577 357.78 155.07C357.22 156.563 356.637 158.5 356.03 160.88L348.68 188.74ZM425.045 154.65L396.345 200.5H393.335L387.875 154.65H387.595L378.635 188.74C378.495 189.3 378.378 189.837 378.285 190.35C378.191 190.863 378.145 191.353 378.145 191.82C378.145 193.78 378.681 195.25 379.755 196.23C380.875 197.163 382.345 197.653 384.165 197.7L383.325 200.5H364.005L364.775 197.7C366.968 197.7 368.928 196.93 370.655 195.39C372.381 193.803 373.571 191.82 374.225 189.44L382.415 158.5C383.115 155.933 383.465 154.02 383.465 152.76C383.465 151.313 382.928 150.403 381.855 150.03C380.828 149.61 379.055 149.4 376.535 149.4L377.305 146.6H394.105L399.075 188.32H399.355L425.745 146.6H440.515L439.745 149.4C438.391 149.4 437.295 149.563 436.455 149.89C435.615 150.17 434.868 150.73 434.215 151.57C433.608 152.41 433.048 153.577 432.535 155.07C432.021 156.563 431.461 158.5 430.855 160.88L423.505 188.74C422.945 190.793 422.665 192.427 422.665 193.64C422.665 195.227 423.201 196.3 424.275 196.86C425.395 197.42 427.215 197.7 429.735 197.7L428.895 200.5H406.565L407.335 197.7C408.595 197.7 409.668 197.607 410.555 197.42C411.441 197.187 412.211 196.767 412.865 196.16C413.565 195.553 414.148 194.713 414.615 193.64C415.128 192.567 415.618 191.167 416.085 189.44L425.325 154.65H425.045ZM499.912 154.65L471.212 200.5H468.202L462.742 154.65H462.462L453.502 188.74C453.362 189.3 453.245 189.837 453.152 190.35C453.058 190.863 453.012 191.353 453.012 191.82C453.012 193.78 453.548 195.25 454.622 196.23C455.742 197.163 457.212 197.653 459.032 197.7L458.192 200.5H438.872L439.642 197.7C441.835 197.7 443.795 196.93 445.522 195.39C447.248 193.803 448.438 191.82 449.092 189.44L457.282 158.5C457.982 155.933 458.332 154.02 458.332 152.76C458.332 151.313 457.795 150.403 456.722 150.03C455.695 149.61 453.922 149.4 451.402 149.4L452.172 146.6H468.972L473.942 188.32H474.222L500.612 146.6H515.382L514.612 149.4C513.258 149.4 512.162 149.563 511.322 149.89C510.482 150.17 509.735 150.73 509.082 151.57C508.475 152.41 507.915 153.577 507.402 155.07C506.888 156.563 506.328 158.5 505.722 160.88L498.372 188.74C497.812 190.793 497.532 192.427 497.532 193.64C497.532 195.227 498.068 196.3 499.142 196.86C500.262 197.42 502.082 197.7 504.602 197.7L503.762 200.5H481.432L482.202 197.7C483.462 197.7 484.535 197.607 485.422 197.42C486.308 197.187 487.078 196.767 487.732 196.16C488.432 195.553 489.015 194.713 489.482 193.64C489.995 192.567 490.485 191.167 490.952 189.44L500.192 154.65H499.912ZM514.579 197.7C516.119 197.7 517.379 197.583 518.359 197.35C519.386 197.117 520.226 196.697 520.879 196.09C521.579 195.437 522.162 194.597 522.629 193.57C523.096 192.497 523.539 191.12 523.959 189.44L532.079 158.57C532.406 157.357 532.639 156.307 532.779 155.42C532.966 154.533 533.059 153.763 533.059 153.11C533.059 151.57 532.522 150.567 531.449 150.1C530.376 149.633 528.579 149.4 526.059 149.4L526.829 146.6H565.049V160.74H562.389C561.782 158.5 561.106 156.68 560.359 155.28C559.612 153.833 558.749 152.713 557.769 151.92C556.836 151.08 555.762 150.497 554.549 150.17C553.382 149.843 552.076 149.68 550.629 149.68H541.529L536.069 170.47H540.479C541.739 170.47 542.812 170.353 543.699 170.12C544.586 169.887 545.379 169.49 546.079 168.93C546.826 168.323 547.502 167.507 548.109 166.48C548.762 165.453 549.462 164.123 550.209 162.49H552.799L548.599 183.21H545.799C545.939 181.81 546.009 180.597 546.009 179.57C546.009 177.47 545.612 175.953 544.819 175.02C544.026 174.04 542.556 173.55 540.409 173.55H535.159L531.169 188.6C530.749 190.14 530.539 191.447 530.539 192.52C530.539 194.2 531.286 195.46 532.779 196.3C534.272 197.093 536.839 197.49 540.479 197.49C543.139 197.49 545.449 197.28 547.409 196.86C549.416 196.44 551.142 195.787 552.589 194.9C554.082 193.967 555.366 192.753 556.439 191.26C557.559 189.767 558.609 187.923 559.589 185.73H562.879L557.419 200.5H513.809L514.579 197.7ZM587.255 186.01C586.789 187.643 586.415 189.09 586.135 190.35C585.902 191.61 585.785 192.543 585.785 193.15C585.785 195.95 588.445 197.35 593.765 197.35L592.995 200.5H569.755L570.525 197.7C572.765 197.7 574.585 197.047 575.985 195.74C577.385 194.387 578.482 192.263 579.275 189.37L587.535 158.5C588.142 156.26 588.445 154.51 588.445 153.25C588.445 152.55 588.329 151.967 588.095 151.5C587.862 151.033 587.465 150.66 586.905 150.38C586.345 150.053 585.599 149.82 584.665 149.68C583.732 149.54 582.565 149.447 581.165 149.4L581.935 146.6H601.395C606.995 146.6 611.405 147.673 614.625 149.82C617.845 151.92 619.455 154.86 619.455 158.64C619.455 160.553 619.082 162.303 618.335 163.89C617.635 165.477 616.609 166.9 615.255 168.16C613.902 169.42 612.269 170.493 610.355 171.38C608.489 172.267 606.412 172.943 604.125 173.41L609.305 186.22C610.285 188.6 611.149 190.537 611.895 192.03C612.689 193.523 613.505 194.69 614.345 195.53C615.185 196.37 616.119 196.953 617.145 197.28C618.219 197.56 619.525 197.7 621.065 197.7L620.295 200.5H606.995L596.705 174.25H590.545L587.255 186.01ZM591.455 170.68H594.885C597.312 170.68 599.552 170.4 601.605 169.84C603.705 169.28 605.479 168.487 606.925 167.46C608.419 166.387 609.585 165.08 610.425 163.54C611.265 162 611.685 160.227 611.685 158.22C611.685 155.42 610.822 153.32 609.095 151.92C607.369 150.473 604.849 149.75 601.535 149.75C600.602 149.75 599.809 149.843 599.155 150.03C598.549 150.17 598.012 150.45 597.545 150.87C597.125 151.29 596.752 151.873 596.425 152.62C596.099 153.32 595.795 154.23 595.515 155.35L591.455 170.68ZM666.894 147.65H668.994L666.054 161.44H663.674C663.534 157.193 662.764 154.137 661.364 152.27C659.964 150.403 657.771 149.47 654.784 149.47C653.337 149.47 652.007 149.68 650.794 150.1C649.581 150.473 648.531 151.033 647.644 151.78C646.804 152.527 646.127 153.413 645.614 154.44C645.147 155.42 644.914 156.493 644.914 157.66C644.914 159.34 645.381 160.833 646.314 162.14C647.247 163.447 648.414 164.683 649.814 165.85C651.261 166.97 652.801 168.113 654.434 169.28C656.114 170.447 657.654 171.73 659.054 173.13C660.501 174.53 661.691 176.117 662.624 177.89C663.557 179.663 664.024 181.74 664.024 184.12C664.024 186.5 663.557 188.74 662.624 190.84C661.691 192.893 660.407 194.69 658.774 196.23C657.187 197.77 655.321 198.983 653.174 199.87C651.027 200.757 648.717 201.2 646.244 201.2C641.157 201.2 636.701 199.193 632.874 195.18L631.404 200.5H628.954L631.894 182.72H634.204C634.531 187.527 635.721 191.19 637.774 193.71C639.827 196.23 642.674 197.49 646.314 197.49C647.994 197.49 649.534 197.257 650.934 196.79C652.334 196.277 653.524 195.6 654.504 194.76C655.531 193.873 656.324 192.847 656.884 191.68C657.491 190.467 657.794 189.16 657.794 187.76C657.794 185.8 657.304 184.073 656.324 182.58C655.344 181.087 654.131 179.687 652.684 178.38C651.237 177.073 649.651 175.813 647.924 174.6C646.197 173.387 644.611 172.103 643.164 170.75C641.717 169.35 640.504 167.833 639.524 166.2C638.544 164.52 638.054 162.607 638.054 160.46C638.054 158.453 638.474 156.563 639.314 154.79C640.201 153.017 641.391 151.477 642.884 150.17C644.377 148.863 646.127 147.837 648.134 147.09C650.141 146.297 652.287 145.9 654.574 145.9C656.767 145.9 658.727 146.273 660.454 147.02C662.181 147.767 663.861 148.957 665.494 150.59L666.894 147.65ZM688.85 188.74C688.29 190.793 688.01 192.427 688.01 193.64C688.01 195.227 688.5 196.3 689.48 196.86C690.507 197.42 692.14 197.7 694.38 197.7L693.54 200.5H671.21L671.98 197.7C673.38 197.7 674.57 197.607 675.55 197.42C676.53 197.187 677.37 196.767 678.07 196.16C678.817 195.553 679.447 194.713 679.96 193.64C680.473 192.567 680.963 191.167 681.43 189.44L689.62 158.5C690.32 155.933 690.67 154.02 690.67 152.76C690.67 151.313 690.133 150.403 689.06 150.03C688.033 149.61 686.26 149.4 683.74 149.4L684.51 146.6H707.26L706.49 149.4C704.95 149.4 703.667 149.563 702.64 149.89C701.613 150.17 700.727 150.73 699.98 151.57C699.233 152.41 698.557 153.577 697.95 155.07C697.39 156.563 696.807 158.5 696.2 160.88L688.85 188.74ZM740.594 145.9C743.581 145.9 746.264 146.413 748.644 147.44C751.071 148.467 753.124 149.937 754.804 151.85C756.531 153.717 757.837 156.003 758.724 158.71C759.657 161.37 760.124 164.357 760.124 167.67C760.124 172.15 759.307 176.42 757.674 180.48C756.087 184.54 753.917 188.11 751.164 191.19C748.411 194.27 745.214 196.72 741.574 198.54C737.981 200.313 734.177 201.2 730.164 201.2C727.177 201.2 724.471 200.687 722.044 199.66C719.617 198.587 717.541 197.093 715.814 195.18C714.087 193.267 712.757 190.98 711.824 188.32C710.891 185.613 710.424 182.603 710.424 179.29C710.424 174.81 711.241 170.563 712.874 166.55C714.507 162.49 716.701 158.943 719.454 155.91C722.207 152.83 725.404 150.403 729.044 148.63C732.731 146.81 736.581 145.9 740.594 145.9ZM740.594 149.54C737.561 149.54 734.714 150.31 732.054 151.85C729.441 153.39 727.154 155.513 725.194 158.22C723.234 160.927 721.694 164.1 720.574 167.74C719.454 171.38 718.894 175.3 718.894 179.5C718.894 185.473 719.921 189.953 721.974 192.94C724.074 195.927 727.131 197.42 731.144 197.42C734.084 197.42 736.791 196.627 739.264 195.04C741.784 193.453 743.954 191.26 745.774 188.46C747.641 185.66 749.087 182.323 750.114 178.45C751.141 174.577 751.654 170.353 751.654 165.78C751.654 160.18 750.744 156.073 748.924 153.46C747.151 150.847 744.374 149.54 740.594 149.54ZM805.877 200.5L787.537 158.36H787.257L779.277 188.74C778.997 189.86 778.857 190.863 778.857 191.75C778.857 193.71 779.441 195.18 780.607 196.16C781.774 197.14 783.407 197.653 785.507 197.7L784.667 200.5H764.647L765.417 197.7C767.611 197.7 769.571 196.93 771.297 195.39C773.024 193.803 774.214 191.82 774.867 189.44L783.127 158.36C783.314 157.66 783.407 156.937 783.407 156.19C783.407 153.95 782.451 152.27 780.537 151.15C778.671 150.03 776.197 149.447 773.117 149.4L773.957 146.6H790.407L807.907 186.71H808.187L815.607 158.36C815.841 157.333 815.957 156.47 815.957 155.77C815.957 153.763 815.374 152.223 814.207 151.15C813.087 150.03 811.711 149.447 810.077 149.4L810.917 146.6H828.837L828.067 149.4C827.181 149.4 826.317 149.61 825.477 150.03C824.637 150.45 823.867 151.033 823.167 151.78C822.467 152.48 821.837 153.343 821.277 154.37C820.764 155.397 820.344 156.493 820.017 157.66L808.677 200.5H805.877Z" fill="#FAB837"/>
<path d="M872.5 201L878.212 183.633L872.5 173.5V201Z" fill="#0080FF" fill-opacity="0.2"/>
<path d="M882.633 167.788L886.25 159.75L872.5 173.5L882.633 167.788Z" fill="#0080FF" fill-opacity="0.2"/>
<path d="M878.212 163.367L872.5 146V173.5L878.212 163.367Z" fill="#0080FF" fill-opacity="0.2"/>
<path d="M866.788 163.367L858.75 159.75L872.5 173.5L866.788 163.367Z" fill="#0080FF" fill-opacity="0.2"/>
<path d="M862.367 167.788L845 173.5H872.5L862.367 167.788Z" fill="#0080FF" fill-opacity="0.2"/>
<path fill-rule="evenodd" clip-rule="evenodd" d="M872.5 173.5L882.633 167.788L900 173.5H872.5ZM872.5 173.5L882.633 179.212L886.25 187.25L872.5 173.5ZM872.5 173.5L866.788 183.633L858.75 187.25L872.5 173.5Z" fill="#0080FF" fill-opacity="0.2"/>
<path d="M866.788 183.633L872.5 201V173.5L866.788 183.633Z" fill="#FAB837" fill-opacity="0.5"/>
<path d="M878.212 183.633L886.25 187.25L872.5 173.5L878.212 183.633Z" fill="#FAB837" fill-opacity="0.5"/>
<path d="M882.633 179.212L900 173.5H872.5L882.633 179.212Z" fill="#FAB837" fill-opacity="0.5"/>
<path d="M886.25 159.75L878.212 163.367L872.5 173.5L886.25 159.75Z" fill="#FAB837" fill-opacity="0.5"/>
<path d="M872.5 146L866.788 163.367L872.5 173.5V146Z" fill="#FAB837" fill-opacity="0.5"/>
<path d="M858.75 159.75L862.367 167.788L872.5 173.5L858.75 159.75Z" fill="#FAB837" fill-opacity="0.5"/>
<path d="M845 173.5L862.367 179.212L872.5 173.5H845Z" fill="#FAB837" fill-opacity="0.5"/>
<path d="M862.367 179.212L858.75 187.25L872.5 173.5L862.367 179.212Z" fill="#FAB837" fill-opacity="0.5"/>
<path d="M872.5 146L878.212 163.367M872.5 146L866.788 163.367M872.5 146V173.5M878.212 163.367L886.25 159.75M878.212 163.367L872.5 173.5M866.788 163.367L858.75 159.75M866.788 163.367L872.5 173.5M858.75 159.75L862.367 167.788M858.75 159.75L872.5 173.5M862.367 167.788L845 173.5M862.367 167.788L872.5 173.5M845 173.5L862.367 179.212M845 173.5H872.5M862.367 179.212L858.75 187.25M862.367 179.212L872.5 173.5M858.75 187.25L866.788 183.633M858.75 187.25L872.5 173.5M866.788 183.633L872.5 201M866.788 183.633L872.5 173.5M872.5 201L878.212 183.633M872.5 201V173.5M878.212 183.633L886.25 187.25M878.212 183.633L872.5 173.5M886.25 187.25L882.633 179.212M886.25 187.25L872.5 173.5M882.633 179.212L900 173.5M882.633 179.212L872.5 173.5M900 173.5L882.633 167.788M900 173.5H872.5M882.633 167.788L886.25 159.75M882.633 167.788L872.5 173.5M886.25 159.75L872.5 173.5" stroke="#FAB837"/>
<defs>
<clipPath id="clip0_347_528">
<path d="M0 73H900V126H0V73Z" fill="white"/>
</clipPath>
</defs>
</svg>
